<svg width="178" height="178" viewBox="0 0 178 178" fill="none" xmlns="http://www.w3.org/2000/svg">
<path d="M174.519 89.2483C174.519 111.989 165.485 133.799 149.405 149.879C133.324 165.96 111.515 174.994 88.7738 174.994C-24.9657 170.477 -24.9332 8.00226 88.7745 3.50293C111.515 3.50314 133.325 12.5371 149.405 28.6175C165.485 44.6978 174.519 66.5074 174.519 89.2483Z" stroke="#E53E2F" stroke-width="6" stroke-linejoin="round"/>
<path d="M54.9238 73.6919C55.9879 54.1402 69.0227 43.7656 88.9737 43.7656C107.727 43.7656 121.294 54.5393 121.294 73.6919C121.49 95.054 99.1222 106.439 84.4512 118.649V122.107H123.821V138.732H55.0569V118.782L86.9783 94.9731C94.4267 89.6529 102.008 83.0026 102.008 74.0912C102.008 65.0465 96.4218 60.7906 88.4411 60.7906C80.594 60.7906 75.0076 64.648 74.0766 73.6924L54.9238 73.6919Z" stroke="#E53E2F" stroke-width="6" stroke-linejoin="round"/>
</svg>
