<svg width="178" height="178" viewBox="0 0 178 178" fill="none" xmlns="http://www.w3.org/2000/svg">
<path d="M174.146 89.2483C174.146 111.989 165.112 133.799 149.032 149.879C132.951 165.96 111.142 174.994 88.4007 174.994C-25.3388 170.477 -25.3062 8.00234 88.4015 3.50293C111.142 3.50314 132.952 12.5371 149.032 28.6175C165.112 44.6978 174.146 66.5074 174.146 89.2483Z" stroke="#E53E2F" stroke-width="6" stroke-linejoin="round"/>
<path d="M117.797 45.6279V65.1797L99.9737 78.3475V81.9385C112.477 83.0026 122.851 92.0472 122.851 108.673C123.56 151.09 52.6968 150.427 51.9585 110.402L71.1115 110.402C72.1751 118.915 78.4268 123.437 87.3381 123.437C97.4467 123.437 103.698 117.585 103.698 108.54C103.803 94.6115 90.9259 91.1807 78.8254 94.1755V78.3475L96.6491 65.1797V61.7214H57.9436V45.6279H117.797Z" stroke="#E53E2F" stroke-width="6" stroke-linejoin="round"/>
</svg>
