<svg width="943" height="373" viewBox="0 0 943 373" fill="none" xmlns="http://www.w3.org/2000/svg">
<path d="M242.096 225.09H286.64V289.09H242.096V365.89H170.928V289.09H0.432001V211.778L157.104 7.48962H242.096V225.09ZM69.552 225.09H173.488V90.4336H160.176L69.552 211.778V225.09ZM369.988 46.9136C395.929 15.8523 429.892 0.321625 471.876 0.321625C513.86 0.321625 547.652 15.8523 573.252 46.9136C599.193 77.6336 612.164 124.226 612.164 186.69C612.164 248.812 599.193 295.404 573.252 326.466C547.652 357.186 513.86 372.546 471.876 372.546C429.892 372.546 395.929 357.186 369.988 326.466C344.388 295.404 331.588 248.812 331.588 186.69C331.588 124.226 344.388 77.6336 369.988 46.9136ZM471.876 307.01C516.249 307.01 538.436 266.903 538.436 186.69C538.436 106.135 516.249 65.8576 471.876 65.8576C427.844 65.8576 405.828 106.135 405.828 186.69C405.828 266.903 427.844 307.01 471.876 307.01ZM897.596 225.09H942.14V289.09H897.596V365.89H826.428V289.09H655.932V211.778L812.604 7.48962H897.596V225.09ZM725.052 225.09H828.988V90.4336H815.676L725.052 211.778V225.09Z" fill="#E6360C"/>
</svg>
