<svg width="30" height="31" viewBox="0 0 30 31" fill="none" xmlns="http://www.w3.org/2000/svg">
<path d="M13.1784 8.61685V21.3277C13.1778 22.3211 14.0109 23.1269 15.0391 23.1275C15.0398 23.1275 15.0405 23.1275 15.0411 23.1275C16.0694 23.1269 16.9024 22.3211 16.9019 21.3277V7.71747C16.9024 5.87716 15.3588 4.38483 13.454 4.38428C13.4527 4.38428 13.4513 4.38428 13.4499 4.38428C11.5451 4.38373 10.0006 5.87517 10 7.71548C10 7.71615 10 7.7168 10 7.71747V21.5534C9.99943 24.2209 12.2371 26.3837 14.9979 26.3843C14.9986 26.3843 14.9993 26.3843 15 26.3843C17.7609 26.3848 19.9994 24.2229 20 21.5554C20 21.5548 20 21.5541 20 21.5534V13.8375" stroke="#2F2F2F" stroke-width="2" stroke-linecap="round" stroke-linejoin="round"/>
</svg>
