<svg width="99" height="111" viewBox="0 0 99 111" fill="none" xmlns="http://www.w3.org/2000/svg">
<path d="M17.0488 22.688H48.597" stroke="#191917" stroke-width="4" stroke-miterlimit="10"/>
<path d="M17.0488 35.9458H48.597" stroke="#191917" stroke-width="4" stroke-miterlimit="10"/>
<path d="M17.0488 48.4209H31.3716" stroke="#191917" stroke-width="4" stroke-miterlimit="10"/>
<path d="M17.0488 22.688H48.597" stroke="#E43D2E" stroke-width="4" stroke-linecap="round" stroke-linejoin="round"/>
<path d="M17.0488 35.9458H48.597" stroke="#E43D2E" stroke-width="4" stroke-linecap="round" stroke-linejoin="round"/>
<path d="M17.0488 48.4209H31.3716" stroke="#E43D2E" stroke-width="4" stroke-linecap="round" stroke-linejoin="round"/>
<path d="M49.0701 74.0372C48.8592 57.1905 66.7692 45.3342 82.1646 51.9815V44.3396V20.7124L60.0403 2.2168H2.01367V108.068H82.1647V96.0932C66.7629 102.737 48.862 90.8866 49.0701 74.0372Z" stroke="#E43D2E" stroke-width="4" stroke-linejoin="round"/>
<path d="M82.1648 51.9811C66.768 45.3355 48.8593 57.1899 49.0702 74.0373C48.8604 90.8821 66.7677 102.741 82.1648 96.0928C101.636 88.0269 101.634 60.0448 82.1648 51.9811Z" stroke="#E43D2E" stroke-width="4" stroke-linejoin="round"/>
<path d="M63.1348 75.8939L72.9649 83.5683L85.686 67.8789" stroke="#E43D2E" stroke-width="4" stroke-linecap="round" stroke-linejoin="round"/>
</svg>
