<svg xmlns="http://www.w3.org/2000/svg" width="48" height="44" viewBox="0 0 48 44" fill="none">
  <path fill-rule="evenodd" clip-rule="evenodd" d="M12.5082 0.0879153C12.1283 0.224796 11.6461 0.690307 11.4373 1.12169L11.2607 1.48682L11.2437 9.30234L11.2268 17.1178L11.3718 17.3363C11.5564 17.6142 11.754 17.7145 12.1196 17.7157C12.3204 17.7163 12.4627 17.6751 12.5782 17.5829C12.9537 17.2832 12.9325 17.7689 12.9325 9.49287C12.9325 1.98831 12.9339 1.90156 13.0586 1.77492C13.1842 1.64751 13.2689 1.64687 29.6116 1.64687C45.6912 1.64687 46.0415 1.64943 46.1873 1.76928L46.3362 1.89163L46.3523 19.4422L46.3684 36.9926L46.2133 37.1501L46.0581 37.3076H41.0968C35.6073 37.3076 35.8372 37.2905 35.6105 37.7176C35.5295 37.8704 35.5078 38.0121 35.532 38.2304C35.5717 38.5876 35.7561 38.8167 36.081 38.9126C36.23 38.9566 38.0042 38.9724 41.3538 38.9595L46.4021 38.9402L46.8232 38.7298C47.3291 38.477 47.6992 38.0763 47.8802 37.5855C48.0087 37.2367 48.0089 37.2175 47.9926 19.3616L47.9764 1.48682L47.8118 1.13469C47.6185 0.721038 47.286 0.358349 46.9162 0.157829L46.6516 0.0142894L29.7132 0.00308519C14.7984 -0.00677433 12.7429 0.00334108 12.5082 0.0879153ZM33.7507 3.88863C30.8591 4.40671 28.4784 6.2076 27.1621 8.87256C25.8707 11.4869 25.9812 14.3648 27.4905 17.4285C28.5461 19.5713 31.1808 23.25 34.0576 26.5979C35.2703 28.0091 35.4419 28.0028 36.7597 26.4999C39.0707 23.8644 41.2328 20.9766 42.5212 18.805C43.4072 17.3115 44.105 15.5778 44.3193 14.3376C44.725 11.9897 44.222 9.70223 42.8637 7.7172C42.3491 6.96532 41.238 5.86572 40.4654 5.34374C38.49 4.00919 36.0405 3.47837 33.7507 3.88863ZM34.0611 5.58313C32.0768 5.92238 30.288 7.09279 29.1539 8.79394C28.7662 9.37552 28.3407 10.3316 28.1543 11.0405C28.0113 11.5844 27.9889 11.8008 27.984 12.6908C27.9778 13.8088 28.0343 14.1548 28.3928 15.1955C29.1618 17.4279 31.3478 20.7501 34.76 24.8723C35.055 25.2285 35.3159 25.5217 35.3398 25.5238C35.4044 25.5292 36.5191 24.2275 37.4202 23.0945C40.6345 19.0527 42.2996 16.1592 42.6779 13.9573C43.3498 10.0471 40.6407 6.29647 36.6265 5.57954C36.0096 5.46936 34.716 5.47115 34.0611 5.58313ZM34.4131 8.24244C32.2843 8.67454 30.6385 10.8708 30.8023 13.0609C30.953 15.0764 32.2167 16.6764 34.1314 17.2758C34.7385 17.4658 35.8954 17.4834 36.5264 17.3122C38.5913 16.752 39.933 14.9822 39.933 12.8189C39.933 11.038 38.998 9.47994 37.4494 8.68042C36.7408 8.31466 36.1482 8.17567 35.3335 8.18425C34.9661 8.18809 34.5518 8.21428 34.4131 8.24244ZM34.9591 9.91562C34.1844 10.0081 33.2847 10.6087 32.8856 11.2997C32.0173 12.8034 32.6172 14.75 34.1782 15.4943C34.5477 15.6705 34.6834 15.6994 35.2332 15.7192C35.7276 15.737 35.9473 15.7153 36.2491 15.6185C37.9286 15.0801 38.7571 13.136 37.9853 11.5449C37.6287 10.8099 37.0531 10.2973 36.3022 10.0464C35.8336 9.88963 35.4716 9.85441 34.9591 9.91562ZM0.591324 19.1374C0.50149 19.1618 0.370337 19.2338 0.299933 19.2975C-0.0120872 19.5794 -3.82983e-05 19.172 8.78725e-05 29.4147C0.000150958 38.4178 0.0069011 39.0177 0.110487 39.2238C0.171112 39.3445 0.300879 39.503 0.398725 39.5759C0.566847 39.7011 0.6722 39.7095 2.29816 39.7274L4.01964 39.7462L4.05604 40.2075C4.17924 41.7677 5.27554 43.194 6.77647 43.7469C8.58721 44.414 10.6423 43.7275 11.7089 42.0993C12.0609 41.5619 12.3434 40.7773 12.4019 40.1746L12.4441 39.7405L17.5932 39.7405L22.7423 39.7406L22.76 40.0447C22.7892 40.5424 22.9463 41.0834 23.2293 41.6612C23.7367 42.6965 24.7991 43.5677 25.9281 43.8742C26.5433 44.0412 27.478 44.0282 28.073 43.8443C28.837 43.6082 29.3745 43.2868 29.9025 42.7503C30.6415 41.9991 31.0536 41.1451 31.1418 40.182L31.1823 39.7405L32.2299 39.7404C33.4109 39.7403 33.6036 39.6881 33.8598 39.2989L34.003 39.0813V35.2838C34.003 31.6492 33.9976 31.4718 33.8775 31.1478C33.7931 30.9201 33.4705 30.453 32.8921 29.7209C32.4192 29.1223 31.2363 27.6097 30.2635 26.3597C29.2906 25.1097 28.3926 23.9754 28.268 23.8391C28.1434 23.7029 27.8995 23.5231 27.726 23.4396C27.4113 23.2882 27.405 23.2879 24.9976 23.2872L22.5845 23.2866L22.5844 21.542C22.5844 19.6296 22.5636 19.5069 22.1936 19.2318C22.0259 19.1069 21.8772 19.1051 11.389 19.0992C5.54012 19.0959 0.681095 19.1131 0.591324 19.1374ZM1.70327 29.4328V38.0759L3.01229 38.0751L4.32131 38.0742L4.50906 37.6749C4.80057 37.055 5.62239 36.2476 6.3085 35.9069C7.55091 35.2901 8.88914 35.3036 10.1567 35.9458C10.7796 36.2614 11.6311 37.0986 11.9164 37.6757L12.1142 38.0759H16.5292H20.9443V29.4328V20.7897H11.3238H1.70327V29.4328ZM22.5845 27.6722V30.3291H26.8781C30.2957 30.3291 31.1621 30.3128 31.1249 30.2491C31.0992 30.2051 30.3254 29.2039 29.4051 28.0243C28.4849 26.8447 27.5804 25.685 27.3951 25.4474L27.0582 25.0152H24.8214H22.5845V27.6722ZM22.5845 35.0348V38.0759H22.8301C23.0335 38.0759 23.0818 38.0507 23.1119 37.929C23.1785 37.6597 23.6659 36.9664 24.0506 36.5938C24.513 36.1458 25.3919 35.6789 26.0227 35.5462C27.5925 35.2157 29.2203 35.8073 30.2256 37.0737C30.3876 37.2778 30.5866 37.5868 30.6678 37.7604L30.8154 38.0759H31.5891H32.3628V35.0348V31.9937H27.4737H22.5845V35.0348ZM7.58605 37.2145C6.81584 37.425 6.29671 37.8553 5.94715 38.5728C5.71941 39.0405 5.70919 39.0892 5.70919 39.7082C5.70919 40.3272 5.71941 40.3758 5.94747 40.8444C6.23236 41.4296 6.72121 41.9089 7.25195 42.1232C7.75537 42.3264 8.65389 42.3234 9.16735 42.1166C9.88229 41.8288 10.5248 41.0519 10.7292 40.228C10.9765 39.2315 10.3774 37.9661 9.41464 37.4511C8.80076 37.1227 8.20416 37.0456 7.58605 37.2145ZM26.3081 37.2182C25.586 37.4151 25.0039 37.9145 24.6528 38.6383C24.4603 39.0351 24.4456 39.1113 24.4456 39.7071C24.4456 40.2958 24.4622 40.3843 24.647 40.7803C24.9077 41.3388 25.3625 41.8004 25.9129 42.065C26.3035 42.2527 26.3895 42.2693 26.969 42.2686C27.5201 42.2678 27.6457 42.246 27.9628 42.0959C28.9992 41.6055 29.6538 40.4107 29.4691 39.3465C29.2884 38.306 28.5401 37.4794 27.5393 37.2149C27.0806 37.0937 26.7614 37.0945 26.3081 37.2182Z" fill="#E6360C"/>
</svg>