<svg width="32" height="32" viewBox="0 0 32 32" fill="none" xmlns="http://www.w3.org/2000/svg">
<path fill-rule="evenodd" clip-rule="evenodd" d="M16.0004 32.002C24.8367 32.003 32.0011 24.8404 32.002 16.0045C32.0028 7.16859 24.8397 0.00426239 16.0035 0.00195324C7.16723 0.000894047 0.00279776 7.1635 0.00195318 15.9994C0.0017214 18.4243 0.720249 20.7556 0.720249 20.7556C1.38005 22.8781 2.35615 24.4481 3.0773 25.4344L1.53556 30.5365C2.42059 30.301 3.30594 30.0658 4.19128 29.8306C5.07661 29.5954 5.96194 29.3602 6.84695 29.1247C7.81063 29.7998 9.2868 30.6724 11.2417 31.2814C11.2417 31.2814 13.5642 32.0017 16.0004 32.002ZM25.3026 16.0034C25.3025 17.0309 24.4695 17.8637 23.442 17.8636C22.4145 17.8635 21.5816 17.0304 21.5817 16.0029C21.5818 14.9754 22.4148 14.1426 23.4423 14.1427C24.4698 14.1428 25.3027 14.9759 25.3026 16.0034ZM16.0006 17.8626C17.0281 17.8628 17.8611 17.0299 17.8612 16.0024C17.8613 14.9749 17.0284 14.1418 16.0009 14.1417C14.9734 14.1416 14.1404 14.9744 14.1403 16.0019C14.1402 17.0294 14.9731 17.8625 16.0006 17.8626ZM10.4198 16.0014C10.4197 17.0289 9.58669 17.8618 8.55918 17.8617C7.53167 17.8615 6.69878 17.0285 6.69888 16.001C6.69897 14.9735 7.53201 14.1406 8.55952 14.1407C9.58703 14.1409 10.4199 14.9739 10.4198 16.0014Z" fill="white"/>
</svg>
