<svg width="108" height="108" viewBox="0 0 108 108" fill="none" xmlns="http://www.w3.org/2000/svg">
<path d="M48.9403 40.4388C48.9403 43.3772 47.773 46.1953 45.6953 48.273C43.6175 50.3508 40.7994 51.5181 37.861 51.5181C23.164 50.9345 23.1682 29.9403 37.861 29.3589C39.3159 29.3589 40.7566 29.6455 42.1009 30.2023C43.4451 30.759 44.6664 31.5751 45.6953 32.604C46.7241 33.6328 47.5402 34.8542 48.097 36.1984C48.6537 37.5426 48.9403 38.9838 48.9403 40.4388Z" stroke="#E43D2E" stroke-width="4" stroke-linejoin="round"/>
<path d="M81.2059 67.949C81.2059 70.8874 80.0387 73.7055 77.9609 75.7833C75.8831 77.8611 73.065 79.0284 70.1266 79.0284C55.4297 78.4448 55.4339 57.4505 70.1266 56.8691C71.5816 56.8691 73.0223 57.1557 74.3665 57.7125C75.7108 58.2693 76.9322 59.0855 77.961 60.1143C78.9898 61.1432 79.8059 62.3646 80.3627 63.7088C80.9194 65.053 81.206 66.494 81.2059 67.949Z" stroke="#E43D2E" stroke-width="4" stroke-linejoin="round"/>
<path d="M77.3361 30.938L30.6523 77.6217" stroke="#E43D2E" stroke-width="4" stroke-linecap="round" stroke-linejoin="round"/>
<path d="M100.766 54.1939L105.583 40.3721L94.5088 30.8069L91.7503 16.4369L77.3802 13.6789L67.8156 2.60449L53.9937 7.42211L40.1719 2.60449L30.6067 13.6789L16.2367 16.4374L13.4787 30.8075L2.4043 40.3721L7.22192 54.1939L2.4043 68.0158L13.4787 77.5809L16.2372 91.951L30.6073 94.709L40.1719 105.783L53.9937 100.966L67.8156 105.783L77.3807 94.709L91.7508 91.9504L94.5088 77.5804L105.583 68.0158L100.766 54.1939Z" stroke="#E43D2E" stroke-width="4" stroke-linejoin="round"/>
</svg>
