<svg width="30" height="31" viewBox="0 0 30 31" xmlns="http://www.w3.org/2000/svg">
<path d="M15.2855 3.7737L18.976 11.2493L27.2261 12.4494C27.2852 12.458 27.3407 12.483 27.3864 12.5215C27.432 12.56 27.466 12.6106 27.4844 12.6674C27.5028 12.7242 27.505 12.785 27.4906 12.843C27.4763 12.901 27.446 12.9538 27.4031 12.9954L21.4333 18.8139L22.8425 27.0305C22.8527 27.0894 22.8462 27.1499 22.8238 27.2053C22.8014 27.2607 22.7639 27.3087 22.7156 27.3439C22.6673 27.379 22.6101 27.4 22.5506 27.4044C22.491 27.4087 22.4314 27.3963 22.3785 27.3686L14.9984 23.4883L7.61942 27.3676C7.56645 27.3952 7.50682 27.4075 7.44724 27.4031C7.38766 27.3987 7.33049 27.3777 7.28216 27.3426C7.23384 27.3075 7.19627 27.2596 7.17369 27.2043C7.15111 27.149 7.14441 27.0884 7.15435 27.0295L8.56455 18.8129L2.59672 12.9954C2.5539 12.9537 2.52361 12.9008 2.5093 12.8428C2.49499 12.7847 2.49723 12.7238 2.51576 12.667C2.53429 12.6102 2.56838 12.5596 2.61415 12.5212C2.65993 12.4827 2.71556 12.4578 2.77475 12.4494L11.0249 11.2493L14.7114 3.7737C14.7378 3.72013 14.7787 3.67502 14.8294 3.64347C14.8802 3.61193 14.9387 3.59521 14.9984 3.59521C15.0582 3.59521 15.1167 3.61193 15.1674 3.64347C15.2182 3.67502 15.2591 3.72013 15.2855 3.7737Z" stroke="currentColor" stroke-linecap="round" stroke-linejoin="round"/>
</svg>
