<svg width="83" height="32" viewBox="0 0 83 32" fill="none" xmlns="http://www.w3.org/2000/svg">
<g clip-path="url(#clip0_800_11254)">
<path fill-rule="evenodd" clip-rule="evenodd" d="M2.69965 -0.000488281H29.2692C30.7602 -0.000488281 31.9689 1.20819 31.9689 2.69916V29.2687C31.9689 30.7597 30.7602 31.9684 29.2692 31.9684H2.69965C1.20868 31.9684 0 30.7597 0 29.2687V2.69916C0 1.20819 1.20868 -0.000488281 2.69965 -0.000488281ZM20.8524 20.8606L8.08025 25.5483C8.02689 25.5681 7.96956 25.5746 7.91313 25.5674C7.85671 25.5602 7.80287 25.5394 7.75622 25.5068C7.70957 25.4743 7.67149 25.4309 7.64524 25.3804C7.61899 25.33 7.60535 25.2739 7.60547 25.217V20.5827C7.60514 20.4364 7.65157 20.2939 7.73798 20.1758C7.8244 20.0578 7.94627 19.9705 8.0858 19.9267L18.0394 16.7789C18.1037 16.7592 18.1599 16.7194 18.1999 16.6654C18.24 16.6114 18.2616 16.5459 18.2618 16.4787V15.5069C18.2618 15.4397 18.2402 15.3741 18.2002 15.3201C18.1601 15.266 18.1038 15.2263 18.0394 15.2067L8.0858 12.0412C7.94636 11.9972 7.82459 11.9098 7.7382 11.7918C7.65181 11.6739 7.60532 11.5314 7.60547 11.3852V6.75196C7.60524 6.69497 7.61879 6.63878 7.64497 6.58816C7.67114 6.53754 7.70916 6.494 7.75578 6.46124C7.80241 6.42848 7.85626 6.40748 7.91276 6.40002C7.96925 6.39256 8.02671 6.39886 8.08025 6.41839L20.9925 11.1606C22.1808 11.5961 23.1667 12.4545 23.7616 13.5715C24.3566 14.6885 24.5187 15.9857 24.217 17.2148C23.9983 18.0518 23.577 18.8222 22.9902 19.4581C22.4035 20.0939 21.6693 20.5755 20.8524 20.8606Z" fill="white"/>
<path d="M44.8737 7.31003C44.8837 6.99425 44.7837 6.8953 44.4646 6.89752C42.6937 6.90938 40.9232 6.90938 39.1531 6.89752C38.8518 6.89752 38.7617 6.99092 38.7617 7.2889C38.7684 14.3193 38.7695 24.5676 38.7617 31.598C38.7617 31.9227 38.8729 32.0005 39.1776 31.9983C40.9358 31.9849 42.6941 31.9849 44.4523 31.9983C44.7859 31.9983 44.8782 31.8871 44.876 31.5669C44.8615 29.74 44.866 24.6954 44.876 22.8686C44.876 22.7574 44.9716 22.5517 45.0027 22.5551C45.1684 22.5756 45.3288 22.6273 45.4753 22.7074C45.5464 22.7474 45.5742 22.8675 45.622 22.9498C46.2166 23.984 47.1808 24.7547 48.3206 25.1068C49.4401 25.4537 50.6223 25.5494 51.783 25.387C52.9173 25.2975 54.0083 24.9125 54.9476 24.2703C55.8869 23.6281 56.6416 22.7512 57.1367 21.7267C57.7826 20.4065 58.1548 18.9693 58.2308 17.5015C58.4368 15.4992 58.246 13.4759 57.6693 11.5474C57.4186 10.6279 56.9781 9.77107 56.3762 9.03207C55.7743 8.29308 55.0244 7.6883 54.1746 7.25666C52.6822 6.55208 51.0094 6.32271 49.3824 6.59953C48.5875 6.68073 47.8244 6.95442 47.1591 7.39692C46.4938 7.83942 45.9464 8.43739 45.5642 9.13908C45.5399 9.20494 45.5017 9.26484 45.4524 9.31479C45.403 9.36475 45.3436 9.40359 45.278 9.42875C45.2125 9.4539 45.1423 9.46477 45.0722 9.46065C45.0021 9.45652 44.9337 9.43749 44.8715 9.40482C44.8682 8.69988 44.8537 8.00495 44.8737 7.31003ZM44.8671 13.3831C44.8408 13.1719 44.8631 12.9575 44.9324 12.7563C45.0017 12.5551 45.1161 12.3723 45.2668 12.2221C45.4176 12.0719 45.6007 11.9581 45.8022 11.8896C46.0037 11.821 46.2182 11.7994 46.4293 11.8265C47.7531 11.8265 49.0774 11.8265 50.402 11.8265C50.6046 11.8088 50.8086 11.8349 51.0003 11.9029C51.1919 11.971 51.3666 12.0795 51.5127 12.221C51.6587 12.3625 51.7726 12.5337 51.8467 12.7231C51.9208 12.9125 51.9533 13.1156 51.942 13.3186C51.9605 15.0858 51.9605 16.8522 51.942 18.6179C51.9574 18.827 51.9265 19.0369 51.8515 19.2327C51.7764 19.4285 51.6591 19.6054 51.5079 19.7507C51.3567 19.8959 51.1753 20.006 50.9767 20.0732C50.778 20.1403 50.567 20.1627 50.3587 20.1389C49.034 20.1389 47.7094 20.1389 46.3848 20.1389C46.1825 20.1595 45.9782 20.1352 45.7864 20.0677C45.5947 20.0002 45.4201 19.8911 45.2754 19.7484C45.1306 19.6056 45.0191 19.4327 44.9489 19.2419C44.8788 19.0511 44.8516 18.8471 44.8693 18.6446C44.8615 17.7551 44.8693 16.8656 44.8693 15.976C44.866 15.1132 44.8637 14.2482 44.8671 13.3831Z" fill="white"/>
<path d="M61.6087 0.718752H67.0859C67.1687 0.718752 67.2482 0.75167 67.3068 0.810263C67.3654 0.868857 67.3983 0.948327 67.3983 1.03119V25.2247C67.3983 25.3081 67.3652 25.3882 67.3062 25.4472C67.2471 25.5062 67.1671 25.5393 67.0837 25.5393H61.6054C61.5225 25.5393 61.4431 25.5064 61.3845 25.4478C61.3259 25.3892 61.293 25.3097 61.293 25.2269V1.03453C61.2928 0.993017 61.3009 0.951889 61.3167 0.913511C61.3325 0.875133 61.3558 0.840264 61.3851 0.810913C61.4145 0.781561 61.4494 0.758307 61.4877 0.74249C61.5261 0.726672 61.5672 0.718605 61.6087 0.718752Z" fill="white"/>
<path d="M81.8786 6.67103L69.1075 11.3643C68.2905 11.6492 67.5561 12.1308 66.9691 12.7667C66.3822 13.4025 65.9607 14.173 65.7418 15.0102C65.4404 16.2394 65.6026 17.5366 66.1974 18.6537C66.7923 19.7709 67.7781 20.6295 68.9663 21.0655L81.8831 25.8065C81.9366 25.8263 81.9941 25.8329 82.0507 25.8255C82.1073 25.8182 82.1613 25.7972 82.208 25.7644C82.2547 25.7316 82.2927 25.6879 82.3188 25.6371C82.3449 25.5864 82.3583 25.5301 82.3578 25.473V20.8398C82.3581 20.6937 82.3117 20.5513 82.2255 20.4333C82.1394 20.3154 82.0178 20.228 81.8786 20.1837L71.9239 17.0182C71.8596 16.9985 71.8034 16.9587 71.7634 16.9047C71.7233 16.8507 71.7017 16.7852 71.7015 16.718V15.7462C71.7017 15.679 71.7233 15.6136 71.7634 15.5595C71.8034 15.5055 71.8596 15.4657 71.9239 15.446L81.8786 12.2983C82.0178 12.2541 82.1394 12.1666 82.2255 12.0487C82.3117 11.9307 82.3581 11.7883 82.3578 11.6423V7.0046C82.3583 6.94707 82.3448 6.89029 82.3184 6.83919C82.292 6.78808 82.2535 6.74419 82.2063 6.71133C82.159 6.67846 82.1045 6.65762 82.0474 6.65059C81.9903 6.64357 81.9324 6.65059 81.8786 6.67103Z" fill="white"/>
</g>
<defs>
<clipPath id="clip0_800_11254">
<rect width="82.3527" height="32" fill="white" transform="translate(0 -0.000488281)"/>
</clipPath>
</defs>
</svg>
