<svg width="83" height="33" viewBox="0 0 83 33" fill="none" xmlns="http://www.w3.org/2000/svg">
<g clip-path="url(#clip0_800_3224)">
<path d="M29.2692 0.666504H2.69965C1.20868 0.666504 0 1.87518 0 3.36616V29.9357C0 31.4267 1.20868 32.6354 2.69965 32.6354H29.2692C30.7602 32.6354 31.9689 31.4267 31.9689 29.9357V3.36616C31.9689 1.87518 30.7602 0.666504 29.2692 0.666504Z" fill="#E6360C"/>
<path d="M8.08025 26.2153L20.8524 21.5276C21.6693 21.2425 22.4035 20.7609 22.9902 20.125C23.577 19.4892 23.9983 18.7188 24.217 17.8818C24.5187 16.6527 24.3566 15.3555 23.7616 14.2385C23.1667 13.1215 22.1808 12.2631 20.9925 11.8276L8.08025 7.08539C8.02671 7.06585 7.96925 7.05955 7.91276 7.06701C7.85626 7.07447 7.80241 7.09547 7.75578 7.12823C7.70916 7.16099 7.67114 7.20453 7.64497 7.25515C7.61879 7.30577 7.60524 7.36197 7.60547 7.41895V12.0522C7.60532 12.1984 7.65181 12.3409 7.7382 12.4588C7.82459 12.5768 7.94636 12.6642 8.0858 12.7082L18.0394 15.8737C18.1038 15.8933 18.1601 15.933 18.2002 15.9871C18.2402 16.0411 18.2618 16.1066 18.2618 16.1739V17.1457C18.2616 17.2129 18.24 17.2784 18.1999 17.3324C18.1599 17.3864 18.1037 17.4262 18.0394 17.4459L8.0858 20.5937C7.94627 20.6375 7.8244 20.7248 7.73798 20.8428C7.65157 20.9609 7.60514 21.1034 7.60547 21.2497V25.884C7.60535 25.9409 7.61899 25.997 7.64524 26.0474C7.67149 26.0979 7.70957 26.1413 7.75622 26.1738C7.80287 26.2064 7.85671 26.2271 7.91313 26.2344C7.96956 26.2416 8.02689 26.2351 8.08025 26.2153Z" fill="white"/>
<path d="M44.8737 7.97702C44.8837 7.66124 44.7837 7.56229 44.4646 7.56451C42.6937 7.57637 40.9232 7.57637 39.1531 7.56451C38.8518 7.56451 38.7617 7.65791 38.7617 7.95589C38.7684 14.9863 38.7695 25.2346 38.7617 32.265C38.7617 32.5897 38.8729 32.6675 39.1776 32.6653C40.9358 32.6519 42.6941 32.6519 44.4523 32.6653C44.7859 32.6653 44.8782 32.5541 44.876 32.2339C44.8615 30.407 44.866 25.3624 44.876 23.5356C44.876 23.4244 44.9716 23.2187 45.0027 23.222C45.1684 23.2426 45.3288 23.2943 45.4753 23.3744C45.5464 23.4144 45.5742 23.5345 45.622 23.6168C46.2166 24.651 47.1808 25.4217 48.3206 25.7738C49.4401 26.1207 50.6223 26.2164 51.783 26.054C52.9173 25.9645 54.0083 25.5795 54.9476 24.9373C55.8869 24.2951 56.6416 23.4182 57.1367 22.3937C57.7826 21.0735 58.1548 19.6363 58.2308 18.1685C58.4368 16.1662 58.246 14.1429 57.6693 12.2144C57.4186 11.2949 56.9781 10.4381 56.3762 9.69907C55.7743 8.96007 55.0244 8.35529 54.1746 7.92365C52.6822 7.21908 51.0094 6.9897 49.3824 7.26653C48.5875 7.34772 47.8244 7.62141 47.1591 8.06391C46.4938 8.50641 45.9464 9.10438 45.5642 9.80607C45.5399 9.87193 45.5017 9.93183 45.4524 9.98179C45.403 10.0317 45.3436 10.0706 45.278 10.0957C45.2125 10.1209 45.1423 10.1318 45.0722 10.1276C45.0021 10.1235 44.9337 10.1045 44.8715 10.0718C44.8682 9.36687 44.8537 8.67195 44.8737 7.97702ZM44.8671 14.0501C44.8408 13.8389 44.8631 13.6245 44.9324 13.4233C45.0017 13.222 45.1161 13.0393 45.2668 12.8891C45.4176 12.7389 45.6007 12.6251 45.8022 12.5566C46.0037 12.488 46.2182 12.4664 46.4293 12.4935C47.7531 12.4935 49.0774 12.4935 50.402 12.4935C50.6046 12.4758 50.8086 12.5019 51.0003 12.5699C51.1919 12.638 51.3666 12.7465 51.5127 12.888C51.6587 13.0295 51.7726 13.2007 51.8467 13.3901C51.9208 13.5795 51.9533 13.7826 51.942 13.9856C51.9605 15.7528 51.9605 17.5192 51.942 19.2849C51.9574 19.494 51.9265 19.7039 51.8515 19.8997C51.7764 20.0955 51.6591 20.2724 51.5079 20.4176C51.3567 20.5629 51.1753 20.673 50.9767 20.7401C50.778 20.8073 50.567 20.8297 50.3587 20.8059C49.034 20.8059 47.7094 20.8059 46.3848 20.8059C46.1825 20.8265 45.9782 20.8022 45.7864 20.7347C45.5947 20.6672 45.4201 20.5581 45.2754 20.4154C45.1306 20.2726 45.0191 20.0997 44.9489 19.9089C44.8788 19.7181 44.8516 19.5141 44.8693 19.3116C44.8615 18.4221 44.8693 17.5325 44.8693 16.643C44.866 15.7802 44.8637 14.9152 44.8671 14.0501Z" fill="white"/>
<path d="M61.6087 1.38574H67.0859C67.1687 1.38574 67.2482 1.41866 67.3068 1.47726C67.3654 1.53585 67.3983 1.61532 67.3983 1.69818V25.8917C67.3983 25.9751 67.3652 26.0551 67.3062 26.1142C67.2471 26.1732 67.1671 26.2063 67.0837 26.2063H61.6054C61.5225 26.2063 61.4431 26.1734 61.3845 26.1148C61.3259 26.0562 61.293 25.9767 61.293 25.8939V1.70152C61.2928 1.66001 61.3009 1.61888 61.3167 1.5805C61.3325 1.54213 61.3558 1.50726 61.3851 1.4779C61.4145 1.44855 61.4494 1.4253 61.4877 1.40948C61.5261 1.39366 61.5672 1.3856 61.6087 1.38574Z" fill="white"/>
<path d="M81.8786 7.33802L69.1075 12.0313C68.2905 12.3162 67.5561 12.7978 66.9691 13.4337C66.3822 14.0695 65.9607 14.84 65.7418 15.6771C65.4404 16.9064 65.6026 18.2036 66.1974 19.3207C66.7923 20.4378 67.7781 21.2965 68.9663 21.7325L81.8831 26.4735C81.9366 26.4933 81.9941 26.4999 82.0507 26.4925C82.1073 26.4852 82.1613 26.4642 82.208 26.4314C82.2547 26.3986 82.2927 26.3549 82.3188 26.3041C82.3449 26.2534 82.3583 26.197 82.3578 26.14V21.5068C82.3581 21.3607 82.3117 21.2183 82.2255 21.1003C82.1394 20.9824 82.0178 20.8949 81.8786 20.8507L71.9239 17.6852C71.8596 17.6655 71.8034 17.6257 71.7634 17.5717C71.7233 17.5177 71.7017 17.4522 71.7015 17.385V16.4132C71.7017 16.346 71.7233 16.2806 71.7634 16.2265C71.8034 16.1725 71.8596 16.1327 71.9239 16.113L81.8786 12.9653C82.0178 12.9211 82.1394 12.8336 82.2255 12.7157C82.3117 12.5977 82.3581 12.4553 82.3578 12.3093V7.67159C82.3583 7.61406 82.3448 7.55728 82.3184 7.50618C82.292 7.45507 82.2535 7.41118 82.2063 7.37832C82.159 7.34546 82.1045 7.32461 82.0474 7.31759C81.9903 7.31056 81.9324 7.31758 81.8786 7.33802Z" fill="white"/>
</g>
<defs>
<clipPath id="clip0_800_3224">
<rect width="82.3527" height="32" fill="white" transform="translate(0 0.666504)"/>
</clipPath>
</defs>
</svg>
