<svg width="83" height="33" viewBox="0 0 83 33" fill="none" xmlns="http://www.w3.org/2000/svg">
<g clip-path="url(#clip0_800_11268)">
<path fill-rule="evenodd" clip-rule="evenodd" d="M2.69965 0.333008H29.2692C30.7602 0.333008 31.9689 1.54168 31.9689 3.03266V29.6022C31.9689 31.0932 30.7602 32.3019 29.2692 32.3019H2.69965C1.20868 32.3019 0 31.0932 0 29.6022V3.03266C0 1.54168 1.20868 0.333008 2.69965 0.333008ZM20.8524 21.1941L8.08025 25.8818C8.02689 25.9016 7.96956 25.9081 7.91313 25.9009C7.85671 25.8936 7.80287 25.8729 7.75622 25.8403C7.70957 25.8078 7.67149 25.7644 7.64524 25.7139C7.61899 25.6635 7.60535 25.6074 7.60547 25.5505V20.9162C7.60514 20.7699 7.65157 20.6274 7.73798 20.5093C7.8244 20.3913 7.94627 20.304 8.0858 20.2602L18.0394 17.1124C18.1037 17.0927 18.1599 17.0529 18.1999 16.9989C18.24 16.9449 18.2616 16.8794 18.2618 16.8122V15.8404C18.2618 15.7731 18.2402 15.7076 18.2002 15.6536C18.1601 15.5995 18.1038 15.5598 18.0394 15.5402L8.0858 12.3747C7.94636 12.3307 7.82459 12.2433 7.7382 12.1253C7.65181 12.0074 7.60532 11.8649 7.60547 11.7187V7.08545C7.60524 7.02847 7.61879 6.97228 7.64497 6.92166C7.67114 6.87104 7.70916 6.82749 7.75578 6.79474C7.80241 6.76198 7.85626 6.74097 7.91276 6.73351C7.96925 6.72605 8.02671 6.73236 8.08025 6.75189L20.9925 11.4941C22.1808 11.9296 23.1667 12.788 23.7616 13.905C24.3566 15.022 24.5187 16.3192 24.217 17.5483C23.9983 18.3853 23.577 19.1557 22.9902 19.7916C22.4035 20.4274 21.6693 20.909 20.8524 21.1941Z" fill="#E6360C"/>
<path d="M44.8737 7.64352C44.8837 7.32775 44.7837 7.22879 44.4646 7.23102C42.6937 7.24288 40.9232 7.24288 39.1531 7.23102C38.8518 7.23102 38.7617 7.32441 38.7617 7.6224C38.7684 14.6528 38.7695 24.9011 38.7617 31.9315C38.7617 32.2562 38.8729 32.334 39.1776 32.3318C40.9358 32.3184 42.6941 32.3184 44.4523 32.3318C44.7859 32.3318 44.8782 32.2206 44.876 31.9004C44.8615 30.0735 44.866 25.0289 44.876 23.2021C44.876 23.0909 44.9716 22.8852 45.0027 22.8886C45.1684 22.9091 45.3288 22.9608 45.4753 23.0409C45.5464 23.0809 45.5742 23.201 45.622 23.2833C46.2166 24.3175 47.1808 25.0882 48.3206 25.4403C49.4401 25.7872 50.6223 25.8829 51.783 25.7205C52.9173 25.631 54.0083 25.246 54.9476 24.6038C55.8869 23.9616 56.6416 23.0847 57.1367 22.0602C57.7826 20.74 58.1548 19.3028 58.2308 17.835C58.4368 15.8327 58.246 13.8094 57.6693 11.8809C57.4186 10.9614 56.9781 10.1046 56.3762 9.36557C55.7743 8.62658 55.0244 8.0218 54.1746 7.59015C52.6822 6.88558 51.0094 6.6562 49.3824 6.93303C48.5875 7.01422 47.8244 7.28791 47.1591 7.73041C46.4938 8.17291 45.9464 8.77089 45.5642 9.47257C45.5399 9.53843 45.5017 9.59834 45.4524 9.64829C45.403 9.69824 45.3436 9.73709 45.278 9.76224C45.2125 9.78739 45.1423 9.79827 45.0722 9.79414C45.0021 9.79002 44.9337 9.77098 44.8715 9.73831C44.8682 9.03338 44.8537 8.33845 44.8737 7.64352ZM44.8671 13.7166C44.8408 13.5054 44.8631 13.291 44.9324 13.0898C45.0017 12.8886 45.1161 12.7058 45.2668 12.5556C45.4176 12.4054 45.6007 12.2916 45.8022 12.2231C46.0037 12.1545 46.2182 12.1329 46.4293 12.16C47.7531 12.16 49.0774 12.16 50.402 12.16C50.6046 12.1423 50.8086 12.1684 51.0003 12.2364C51.1919 12.3045 51.3666 12.413 51.5127 12.5545C51.6587 12.696 51.7726 12.8672 51.8467 13.0566C51.9208 13.246 51.9533 13.4491 51.942 13.6521C51.9605 15.4193 51.9605 17.1857 51.942 18.9514C51.9574 19.1605 51.9265 19.3704 51.8515 19.5662C51.7764 19.762 51.6591 19.9389 51.5079 20.0842C51.3567 20.2294 51.1753 20.3395 50.9767 20.4066C50.778 20.4738 50.567 20.4962 50.3587 20.4724C49.034 20.4724 47.7094 20.4724 46.3848 20.4724C46.1825 20.493 45.9782 20.4687 45.7864 20.4012C45.5947 20.3337 45.4201 20.2246 45.2754 20.0819C45.1306 19.9391 45.0191 19.7662 44.9489 19.5754C44.8788 19.3846 44.8516 19.1806 44.8693 18.9781C44.8615 18.0886 44.8693 17.199 44.8693 16.3095C44.866 15.4467 44.8637 14.5817 44.8671 13.7166Z" fill="#E6360C"/>
<path d="M61.6087 1.05225H67.0859C67.1687 1.05225 67.2482 1.08517 67.3068 1.14376C67.3654 1.20235 67.3983 1.28182 67.3983 1.36469V25.5582C67.3983 25.6416 67.3652 25.7216 67.3062 25.7807C67.2471 25.8397 67.1671 25.8728 67.0837 25.8728H61.6054C61.5225 25.8728 61.4431 25.8399 61.3845 25.7813C61.3259 25.7227 61.293 25.6432 61.293 25.5604V1.36802C61.2928 1.32651 61.3009 1.28539 61.3167 1.24701C61.3325 1.20863 61.3558 1.17376 61.3851 1.14441C61.4145 1.11506 61.4494 1.0918 61.4877 1.07599C61.5261 1.06017 61.5672 1.0521 61.6087 1.05225Z" fill="#E6360C"/>
<path d="M81.8786 7.00453L69.1075 11.6978C68.2905 11.9827 67.5561 12.4643 66.9691 13.1002C66.3822 13.736 65.9607 14.5065 65.7418 15.3437C65.4404 16.5729 65.6026 17.8701 66.1974 18.9872C66.7923 20.1043 67.7781 20.963 68.9663 21.399L81.8831 26.14C81.9366 26.1598 81.9941 26.1664 82.0507 26.159C82.1073 26.1517 82.1613 26.1307 82.208 26.0979C82.2547 26.0651 82.2927 26.0214 82.3188 25.9706C82.3449 25.9199 82.3583 25.8635 82.3578 25.8065V21.1733C82.3581 21.0272 82.3117 20.8848 82.2255 20.7668C82.1394 20.6489 82.0178 20.5614 81.8786 20.5172L71.9239 17.3517C71.8596 17.332 71.8034 17.2922 71.7634 17.2382C71.7233 17.1842 71.7017 17.1187 71.7015 17.0515V16.0797C71.7017 16.0125 71.7233 15.9471 71.7634 15.893C71.8034 15.839 71.8596 15.7992 71.9239 15.7795L81.8786 12.6318C82.0178 12.5876 82.1394 12.5001 82.2255 12.3822C82.3117 12.2642 82.3581 12.1218 82.3578 11.9758V7.33809C82.3583 7.28057 82.3448 7.22379 82.3184 7.17268C82.292 7.12158 82.2535 7.07769 82.2063 7.04482C82.159 7.01196 82.1045 6.99111 82.0474 6.98409C81.9903 6.97707 81.9324 6.98408 81.8786 7.00453Z" fill="#E6360C"/>
</g>
<defs>
<clipPath id="clip0_800_11268">
<rect width="82.3527" height="32" fill="white" transform="translate(0 0.333008)"/>
</clipPath>
</defs>
</svg>
