<svg width="233" height="32" viewBox="0 0 233 32" fill="none" xmlns="http://www.w3.org/2000/svg">
<g clip-path="url(#clip0_801_11382)">
<path d="M94.2148 7.36914H95.349V10.1277H97.1791L98.4734 7.36914H99.6453L98.1331 10.6481L99.7242 14.1205H98.5523L97.1736 11.1629H95.349V14.1205H94.2148V7.36914Z" fill="white"/>
<path d="M107.286 10.7423C107.314 11.1823 107.252 11.6234 107.103 12.0385C106.954 12.4535 106.722 12.8335 106.42 13.1552C106.119 13.4768 105.754 13.7332 105.35 13.9084C104.945 14.0837 104.509 14.1741 104.068 14.1741C103.627 14.1741 103.191 14.0837 102.787 13.9084C102.382 13.7332 102.018 13.4768 101.716 13.1552C101.414 12.8335 101.182 12.4535 101.033 12.0385C100.884 11.6234 100.822 11.1823 100.85 10.7423C100.822 10.3023 100.884 9.8612 101.033 9.44619C101.182 9.03118 101.414 8.65112 101.716 8.32948C102.018 8.00785 102.382 7.75148 102.787 7.57623C103.191 7.40097 103.627 7.31055 104.068 7.31055C104.509 7.31055 104.945 7.40097 105.35 7.57623C105.754 7.75148 106.119 8.00785 106.42 8.32948C106.722 8.65112 106.954 9.03118 107.103 9.44619C107.252 9.8612 107.314 10.3023 107.286 10.7423ZM106.133 10.7423C106.133 9.40806 105.499 8.27505 104.073 8.27505C102.646 8.27505 102.003 9.41028 102.003 10.7423C102.003 12.0744 102.636 13.2096 104.073 13.2096C105.509 13.2096 106.133 12.0744 106.133 10.7423Z" fill="white"/>
<path d="M109.125 7.36914H110.92L112.318 10.3078H112.541L113.921 7.36914H115.725V14.1205H114.649V8.72119H114.426L112.999 11.6788H111.846L110.428 8.72119H110.206V14.1205H109.129L109.125 7.36914Z" fill="white"/>
<path d="M123.467 7.36914V14.1205H122.334V8.39986H119.036V14.1205H117.902V7.36914H123.467Z" fill="white"/>
<path d="M125.272 13.0008C126.095 13.0008 126.435 12.6139 126.435 10.0054V7.36914H131.113V14.1205H129.978V8.39986H127.493V10.1377C127.493 13.4167 126.812 14.116 125.281 14.116H125.059V13.0042L125.272 13.0008Z" fill="white"/>
<path d="M138.247 13.0853V14.1205H133.277V7.36914H138.125V8.39986H134.411V10.1377H137.35V11.1484H134.411V13.0853H138.247Z" fill="white"/>
<path d="M140 7.36914H141.133V10.1277H142.958L144.252 7.36914H145.424L143.912 10.6481L145.508 14.116H144.336L142.958 11.1584H141.133V14.1205H140V7.36914Z" fill="white"/>
<path d="M152.562 12.0747C152.457 12.7139 152.117 13.2906 151.608 13.6912C151.099 14.0917 150.458 14.287 149.812 14.2384C147.781 14.2384 146.637 12.7741 146.637 10.7427C146.637 8.71125 147.789 7.24579 149.821 7.24579C150.433 7.19546 151.041 7.37034 151.533 7.73751C152.024 8.10468 152.365 8.63881 152.49 9.23939H151.299C151.206 8.93099 151.007 8.66528 150.737 8.48898C150.468 8.31267 150.144 8.23705 149.824 8.27539C148.436 8.27539 147.792 9.41062 147.792 10.7427C147.792 12.0747 148.426 13.2099 149.816 13.2099C150.169 13.2412 150.521 13.1434 150.807 12.9347C151.093 12.7259 151.294 12.4203 151.372 12.0747H152.562Z" fill="white"/>
<path d="M159.966 7.36914V14.1205H158.831V11.1684H155.458V14.1205H154.328V7.36914H155.462V10.1099H158.836V7.36914H159.966Z" fill="white"/>
<path d="M162.133 14.1205V7.36914H163.267V9.80639H164.874C166.424 9.80639 167.302 10.6003 167.302 11.9523C167.302 13.3044 166.424 14.116 164.874 14.116L162.133 14.1205ZM164.69 13.1198C165.758 13.1198 166.144 12.6851 166.144 11.9579C166.144 11.2307 165.758 10.8149 164.69 10.8149H163.262V13.1198H164.69ZM169.263 7.3747V14.1205H168.12V7.36914L169.263 7.3747Z" fill="white"/>
<path d="M176.405 13.0853V14.1205H171.434V7.36914H176.283V8.39986H172.567V10.1377H175.505V11.1484H172.567V13.0853H176.405Z" fill="white"/>
<path d="M184.201 7.36914C185.712 7.36914 186.563 8.15302 186.563 9.44836C186.563 10.7704 185.712 11.5543 184.201 11.5543H182.367V14.1116H181.238V7.36914H184.201ZM184.03 10.5536C185.041 10.5536 185.41 10.1377 185.41 9.45726C185.41 8.77678 185.041 8.37095 184.03 8.37095H182.362V10.5536H184.03Z" fill="white"/>
<path d="M193.303 13.0853V14.1205H188.332V7.36914H193.18V8.39986H189.467V10.1377H192.406V11.1484H189.467V13.0853H193.303Z" fill="white"/>
<path d="M198.546 7.36914H199.651V13.0853H202.042V7.36914H203.154V14.1205H195.055V7.36914H196.16V13.0853H198.552L198.546 7.36914Z" fill="white"/>
<path d="M210.294 13.0853V14.1205H205.324V7.36914H210.172V8.39986H206.458V10.1377H209.397V11.1484H206.458V13.0853H210.294Z" fill="white"/>
<path d="M217.687 7.36914V14.1205H216.553V11.1684H213.18V14.1205H212.047V7.36914H213.18V10.1099H216.553V7.36914H217.687Z" fill="white"/>
<path d="M220.928 7.36914V12.6228H221.151L223.939 7.36914H225.545V14.1205H224.468V8.8624H224.245L221.454 14.1205H219.848V7.36914H220.928Z" fill="white"/>
<path d="M232.847 7.36914V14.1205H231.719V11.432H230.15C229.951 11.4401 229.753 11.4338 229.555 11.4131L228.594 14.1205H227.441L228.482 11.1729C228.159 11.0098 227.891 10.7553 227.711 10.4409C227.531 10.1266 227.447 9.7664 227.47 9.405C227.47 8.12856 228.302 7.37359 229.766 7.37359L232.847 7.36914ZM231.713 8.36984H229.928C228.972 8.36984 228.623 8.73787 228.623 9.40945C228.623 10.0521 228.972 10.4479 229.928 10.4479H231.719L231.713 8.36984Z" fill="white"/>
<path d="M100.514 24.204V26.8881H99.4026V25.2391H94.6404V26.8925H93.5352V24.204H94.2334C94.8245 22.9069 95.1062 21.4901 95.0562 20.0656V18.4878H99.5449V24.204H100.514ZM98.4352 19.5185H96.1147V20.169C96.1706 21.5502 95.9251 22.9271 95.3953 24.204H98.4297L98.4352 19.5185Z" fill="white"/>
<path d="M102.021 24.1195C102.844 24.1195 103.184 23.7325 103.184 21.1241V18.4878H107.862V25.2391H106.728V19.5185H104.241V21.2564C104.241 24.5353 103.562 25.2347 102.031 25.2347H101.809V24.1228L102.021 24.1195Z" fill="white"/>
<path d="M115.159 18.4878V25.2391H114.025V22.5506H112.456C112.257 22.5588 112.058 22.5525 111.861 22.5317L110.906 25.2391H109.754L110.792 22.2915C110.469 22.1283 110.201 21.8737 110.022 21.5594C109.842 21.2451 109.758 20.8849 109.782 20.5237C109.782 19.2472 110.613 18.4922 112.078 18.4922L115.159 18.4878ZM114.025 19.4885H112.239C111.284 19.4885 110.935 19.8565 110.935 20.5281C110.935 21.1708 111.284 21.5666 112.239 21.5666H114.025V19.4885Z" fill="white"/>
<path d="M124.901 21.8134C125.179 21.9496 125.412 22.1628 125.573 22.4277C125.734 22.6926 125.815 22.9981 125.807 23.3078C125.807 24.403 125.061 25.2347 123.501 25.2347H120.363V18.4878H123.418C124.882 18.4878 125.61 19.2906 125.61 20.2357C125.626 20.5041 125.568 20.7717 125.444 21.0099C125.319 21.248 125.132 21.4478 124.902 21.5877L124.901 21.8134ZM123.312 21.2575C124.144 21.2575 124.446 20.9239 124.446 20.3591C124.446 19.7943 124.144 19.4696 123.312 19.4696H121.497V21.2553L123.312 21.2575ZM123.35 24.2529C124.296 24.2529 124.645 23.866 124.645 23.2322C124.645 22.5984 124.296 22.2215 123.35 22.2215H121.497V24.2529H123.35Z" fill="white"/>
<path d="M133.782 21.8615C133.81 22.3015 133.748 22.7426 133.599 23.1576C133.45 23.5726 133.218 23.9527 132.917 24.2743C132.615 24.5959 132.251 24.8523 131.846 25.0276C131.441 25.2028 131.005 25.2932 130.564 25.2932C130.123 25.2932 129.687 25.2028 129.283 25.0276C128.878 24.8523 128.514 24.5959 128.212 24.2743C127.911 23.9527 127.678 23.5726 127.529 23.1576C127.38 22.7426 127.318 22.3015 127.347 21.8615C127.318 21.4215 127.38 20.9803 127.529 20.5653C127.678 20.1503 127.911 19.7703 128.212 19.4486C128.514 19.127 128.878 18.8706 129.283 18.6954C129.687 18.5201 130.123 18.4297 130.564 18.4297C131.005 18.4297 131.441 18.5201 131.846 18.6954C132.251 18.8706 132.615 19.127 132.917 19.4486C133.218 19.7703 133.45 20.1503 133.599 20.5653C133.748 20.9803 133.81 21.4215 133.782 21.8615ZM132.629 21.8615C132.629 20.5272 131.995 19.3942 130.569 19.3942C129.142 19.3942 128.5 20.5294 128.5 21.8615C128.5 23.1935 129.132 24.3287 130.569 24.3287C132.005 24.3287 132.629 23.1935 132.629 21.8615Z" fill="white"/>
<path d="M135.144 24.1195C135.967 24.1195 136.307 23.7325 136.307 21.1241V18.4878H140.985V25.2391H139.851V19.5185H137.366V21.2564C137.366 24.5353 136.685 25.2347 135.154 25.2347H134.938V24.1228L135.144 24.1195Z" fill="white"/>
<path d="M148.742 23.1933C148.637 23.8325 148.296 24.4093 147.787 24.8098C147.278 25.2104 146.638 25.4056 145.992 25.3571C143.961 25.3571 142.816 23.8927 142.816 21.8613C142.816 19.8299 143.969 18.3644 146.001 18.3644C146.612 18.3141 147.221 18.489 147.712 18.8562C148.204 19.2233 148.544 19.7575 148.669 20.358H147.479C147.386 20.0495 147.187 19.7837 146.917 19.6073C146.647 19.431 146.324 19.3555 146.004 19.394C144.615 19.394 143.973 20.5293 143.973 21.8613C143.973 23.1933 144.605 24.3286 145.995 24.3286C146.348 24.3599 146.701 24.2621 146.987 24.0533C147.273 23.8445 147.474 23.539 147.552 23.1933H148.742Z" fill="white"/>
<path d="M154.675 18.4878V23.7414H154.897L157.685 18.4878H159.292V25.2391H158.219V19.9811H157.996L155.203 25.2391H153.598V18.4878H154.675Z" fill="white"/>
<path d="M170.101 23.1933C169.996 23.8325 169.656 24.4093 169.147 24.8098C168.638 25.2104 167.997 25.4056 167.351 25.3571C165.32 25.3571 164.176 23.8927 164.176 21.8613C164.176 19.8299 165.329 18.3644 167.36 18.3644C167.972 18.3141 168.58 18.489 169.072 18.8562C169.563 19.2233 169.904 19.7575 170.029 20.358H168.838C168.745 20.0495 168.546 19.7837 168.276 19.6073C168.007 19.431 167.683 19.3555 167.364 19.394C165.975 19.394 165.332 20.5293 165.332 21.8613C165.332 23.1933 165.965 24.3286 167.355 24.3286C167.708 24.3597 168.06 24.2618 168.346 24.053C168.632 23.8443 168.833 23.5389 168.911 23.1933H170.101Z" fill="white"/>
<path d="M172.941 18.4878V23.7414H173.163L175.949 18.4878H177.566V25.2391H176.489V19.9811H176.266L173.469 25.2391H171.863V18.4878H172.941Z" fill="white"/>
<path d="M185.295 18.4878V25.2391H184.161V19.5185H180.865V25.2391H179.73V18.4878H185.295Z" fill="white"/>
<path fill-rule="evenodd" clip-rule="evenodd" d="M2.69965 -0.000488281H29.2692C30.7602 -0.000488281 31.9689 1.20819 31.9689 2.69916V29.2687C31.9689 30.7597 30.7602 31.9684 29.2692 31.9684H2.69965C1.20868 31.9684 0 30.7597 0 29.2687V2.69916C0 1.20819 1.20868 -0.000488281 2.69965 -0.000488281ZM20.8524 20.8606L8.08025 25.5483C8.02689 25.5681 7.96956 25.5746 7.91313 25.5674C7.85671 25.5602 7.80287 25.5394 7.75622 25.5068C7.70957 25.4743 7.67149 25.4309 7.64524 25.3804C7.61899 25.33 7.60535 25.2739 7.60547 25.217V20.5827C7.60514 20.4364 7.65157 20.2939 7.73798 20.1758C7.8244 20.0578 7.94627 19.9705 8.0858 19.9267L18.0394 16.7789C18.1037 16.7592 18.1599 16.7194 18.1999 16.6654C18.24 16.6114 18.2616 16.5459 18.2618 16.4787V15.5069C18.2618 15.4397 18.2402 15.3741 18.2002 15.3201C18.1601 15.266 18.1038 15.2263 18.0394 15.2067L8.0858 12.0412C7.94636 11.9972 7.82459 11.9098 7.7382 11.7918C7.65181 11.6739 7.60532 11.5314 7.60547 11.3852V6.75196C7.60524 6.69497 7.61879 6.63878 7.64497 6.58816C7.67114 6.53754 7.70916 6.494 7.75578 6.46124C7.80241 6.42848 7.85626 6.40748 7.91276 6.40002C7.96925 6.39256 8.02671 6.39886 8.08025 6.41839L20.9925 11.1606C22.1808 11.5961 23.1667 12.4545 23.7616 13.5715C24.3566 14.6885 24.5187 15.9857 24.217 17.2148C23.9983 18.0518 23.577 18.8222 22.9902 19.4581C22.4035 20.0939 21.6693 20.5755 20.8524 20.8606Z" fill="white"/>
<path d="M44.8737 7.31003C44.8837 6.99425 44.7837 6.8953 44.4646 6.89752C42.6937 6.90938 40.9232 6.90938 39.1531 6.89752C38.8518 6.89752 38.7617 6.99092 38.7617 7.2889C38.7684 14.3193 38.7695 24.5676 38.7617 31.598C38.7617 31.9227 38.8729 32.0005 39.1776 31.9983C40.9358 31.9849 42.6941 31.9849 44.4523 31.9983C44.7859 31.9983 44.8782 31.8871 44.876 31.5669C44.8615 29.74 44.866 24.6954 44.876 22.8686C44.876 22.7574 44.9716 22.5517 45.0027 22.5551C45.1684 22.5756 45.3288 22.6273 45.4753 22.7074C45.5464 22.7474 45.5742 22.8675 45.622 22.9498C46.2166 23.984 47.1808 24.7547 48.3206 25.1068C49.4401 25.4537 50.6223 25.5494 51.783 25.387C52.9173 25.2975 54.0083 24.9125 54.9476 24.2703C55.8869 23.6281 56.6416 22.7512 57.1367 21.7267C57.7826 20.4065 58.1548 18.9693 58.2308 17.5015C58.4368 15.4992 58.246 13.4759 57.6693 11.5474C57.4186 10.6279 56.9781 9.77107 56.3762 9.03207C55.7743 8.29308 55.0244 7.6883 54.1746 7.25666C52.6822 6.55208 51.0094 6.32271 49.3824 6.59953C48.5875 6.68073 47.8244 6.95442 47.1591 7.39692C46.4938 7.83942 45.9464 8.43739 45.5642 9.13908C45.5399 9.20494 45.5017 9.26484 45.4524 9.31479C45.403 9.36475 45.3436 9.40359 45.278 9.42875C45.2125 9.4539 45.1423 9.46477 45.0722 9.46065C45.0021 9.45652 44.9337 9.43749 44.8715 9.40482C44.8682 8.69988 44.8537 8.00495 44.8737 7.31003ZM44.8671 13.3831C44.8408 13.1719 44.8631 12.9575 44.9324 12.7563C45.0017 12.5551 45.1161 12.3723 45.2668 12.2221C45.4176 12.0719 45.6007 11.9581 45.8022 11.8896C46.0037 11.821 46.2182 11.7994 46.4293 11.8265C47.7531 11.8265 49.0774 11.8265 50.402 11.8265C50.6046 11.8088 50.8086 11.8349 51.0003 11.9029C51.1919 11.971 51.3666 12.0795 51.5127 12.221C51.6587 12.3625 51.7726 12.5337 51.8467 12.7231C51.9208 12.9125 51.9533 13.1156 51.942 13.3186C51.9605 15.0858 51.9605 16.8522 51.942 18.6179C51.9574 18.827 51.9265 19.0369 51.8515 19.2327C51.7764 19.4285 51.6591 19.6054 51.5079 19.7507C51.3567 19.8959 51.1753 20.006 50.9767 20.0732C50.778 20.1403 50.567 20.1627 50.3587 20.1389C49.034 20.1389 47.7094 20.1389 46.3848 20.1389C46.1825 20.1595 45.9782 20.1352 45.7864 20.0677C45.5947 20.0002 45.4201 19.8911 45.2754 19.7484C45.1306 19.6056 45.0191 19.4327 44.9489 19.2419C44.8788 19.0511 44.8516 18.8471 44.8693 18.6446C44.8615 17.7551 44.8693 16.8656 44.8693 15.976C44.866 15.1132 44.8637 14.2482 44.8671 13.3831Z" fill="white"/>
<path d="M61.6087 0.718752H67.0859C67.1687 0.718752 67.2482 0.75167 67.3068 0.810263C67.3654 0.868857 67.3983 0.948327 67.3983 1.03119V25.2247C67.3983 25.3081 67.3652 25.3882 67.3062 25.4472C67.2471 25.5062 67.1671 25.5393 67.0837 25.5393H61.6054C61.5225 25.5393 61.4431 25.5064 61.3845 25.4478C61.3259 25.3892 61.293 25.3097 61.293 25.2269V1.03453C61.2928 0.993017 61.3009 0.951889 61.3167 0.913511C61.3325 0.875133 61.3558 0.840264 61.3851 0.810913C61.4145 0.781561 61.4494 0.758307 61.4877 0.74249C61.5261 0.726672 61.5672 0.718605 61.6087 0.718752Z" fill="white"/>
<path d="M81.8786 6.67103L69.1075 11.3643C68.2905 11.6492 67.5561 12.1308 66.9691 12.7667C66.3822 13.4025 65.9607 14.173 65.7418 15.0102C65.4404 16.2394 65.6026 17.5366 66.1974 18.6537C66.7923 19.7709 67.7781 20.6295 68.9663 21.0655L81.8831 25.8065C81.9366 25.8263 81.9941 25.8329 82.0507 25.8255C82.1073 25.8182 82.1613 25.7972 82.208 25.7644C82.2547 25.7316 82.2927 25.6879 82.3188 25.6371C82.3449 25.5864 82.3583 25.53 82.3578 25.473V20.8398C82.3581 20.6937 82.3117 20.5513 82.2255 20.4333C82.1394 20.3154 82.0178 20.228 81.8786 20.1837L71.9239 17.0182C71.8596 16.9985 71.8034 16.9587 71.7634 16.9047C71.7233 16.8507 71.7017 16.7852 71.7015 16.718V15.7462C71.7017 15.679 71.7233 15.6136 71.7634 15.5595C71.8034 15.5055 71.8596 15.4657 71.9239 15.446L81.8786 12.2983C82.0178 12.2541 82.1394 12.1666 82.2255 12.0487C82.3117 11.9307 82.3581 11.7883 82.3578 11.6423V7.0046C82.3583 6.94707 82.3448 6.89029 82.3184 6.83919C82.292 6.78808 82.2535 6.74419 82.2063 6.71133C82.159 6.67846 82.1045 6.65762 82.0474 6.65059C81.9903 6.64357 81.9324 6.65059 81.8786 6.67103Z" fill="white"/>
</g>
<defs>
<clipPath id="clip0_801_11382">
<rect width="232.845" height="32" fill="white" transform="translate(0 -0.000488281)"/>
</clipPath>
</defs>
</svg>
