<svg width="233" height="32" viewBox="0 0 233 32" fill="none" xmlns="http://www.w3.org/2000/svg">
<g clip-path="url(#clip0_800_3230)">
<path d="M94.2148 7.36963H95.349V10.1282H97.1791L98.4734 7.36963H99.6453L98.1331 10.6486L99.7242 14.121H98.5523L97.1736 11.1634H95.349V14.121H94.2148V7.36963Z" fill="currentColor"/>
<path d="M107.286 10.7428C107.314 11.1828 107.252 11.6239 107.103 12.0389C106.954 12.4539 106.722 12.834 106.42 13.1556C106.119 13.4773 105.754 13.7336 105.35 13.9089C104.945 14.0842 104.509 14.1746 104.068 14.1746C103.627 14.1746 103.191 14.0842 102.787 13.9089C102.382 13.7336 102.018 13.4773 101.716 13.1556C101.414 12.834 101.182 12.4539 101.033 12.0389C100.884 11.6239 100.822 11.1828 100.85 10.7428C100.822 10.3028 100.884 9.86168 101.033 9.44668C101.182 9.03167 101.414 8.6516 101.716 8.32997C102.018 8.00834 102.382 7.75197 102.787 7.57671C103.191 7.40146 103.627 7.31104 104.068 7.31104C104.509 7.31104 104.945 7.40146 105.35 7.57671C105.754 7.75197 106.119 8.00834 106.42 8.32997C106.722 8.6516 106.954 9.03167 107.103 9.44668C107.252 9.86168 107.314 10.3028 107.286 10.7428ZM106.133 10.7428C106.133 9.40855 105.499 8.27554 104.073 8.27554C102.646 8.27554 102.003 9.41077 102.003 10.7428C102.003 12.0748 102.636 13.2101 104.073 13.2101C105.509 13.2101 106.133 12.0748 106.133 10.7428Z" fill="currentColor"/>
<path d="M109.125 7.36963H110.92L112.318 10.3083H112.541L113.921 7.36963H115.725V14.121H114.649V8.72168H114.426L112.999 11.6793H111.846L110.428 8.72168H110.206V14.121H109.129L109.125 7.36963Z" fill="currentColor"/>
<path d="M123.467 7.36963V14.121H122.334V8.40034H119.036V14.121H117.902V7.36963H123.467Z" fill="currentColor"/>
<path d="M125.272 13.0013C126.095 13.0013 126.435 12.6144 126.435 10.0059V7.36963H131.113V14.121H129.978V8.40034H127.493V10.1382C127.493 13.4172 126.812 14.1165 125.281 14.1165H125.059V13.0047L125.272 13.0013Z" fill="currentColor"/>
<path d="M138.247 13.0858V14.121H133.277V7.36963H138.125V8.40034H134.411V10.1382H137.35V11.1489H134.411V13.0858H138.247Z" fill="currentColor"/>
<path d="M140 7.36963H141.133V10.1282H142.958L144.252 7.36963H145.424L143.912 10.6486L145.508 14.1165H144.336L142.958 11.1589H141.133V14.121H140V7.36963Z" fill="currentColor"/>
<path d="M152.562 12.0752C152.457 12.7144 152.117 13.2911 151.608 13.6917C151.099 14.0922 150.458 14.2875 149.812 14.2389C147.781 14.2389 146.637 12.7746 146.637 10.7431C146.637 8.71174 147.789 7.24627 149.821 7.24627C150.433 7.19595 151.041 7.37083 151.533 7.738C152.024 8.10516 152.365 8.6393 152.49 9.23988H151.299C151.206 8.93148 151.007 8.66577 150.737 8.48947C150.468 8.31316 150.144 8.23753 149.824 8.27588C148.436 8.27588 147.792 9.41111 147.792 10.7431C147.792 12.0752 148.426 13.2104 149.816 13.2104C150.169 13.2417 150.521 13.1439 150.807 12.9351C151.093 12.7264 151.294 12.4208 151.372 12.0752H152.562Z" fill="currentColor"/>
<path d="M159.966 7.36963V14.121H158.831V11.1689H155.458V14.121H154.328V7.36963H155.462V10.1104H158.836V7.36963H159.966Z" fill="currentColor"/>
<path d="M162.133 14.121V7.36963H163.267V9.80688H164.874C166.424 9.80688 167.302 10.6008 167.302 11.9528C167.302 13.3049 166.424 14.1165 164.874 14.1165L162.133 14.121ZM164.69 13.1203C165.758 13.1203 166.144 12.6855 166.144 11.9584C166.144 11.2312 165.758 10.8154 164.69 10.8154H163.262V13.1203H164.69ZM169.263 7.37519V14.121H168.12V7.36963L169.263 7.37519Z" fill="currentColor"/>
<path d="M176.405 13.0858V14.121H171.434V7.36963H176.283V8.40034H172.567V10.1382H175.505V11.1489H172.567V13.0858H176.405Z" fill="currentColor"/>
<path d="M184.201 7.36963C185.712 7.36963 186.563 8.15351 186.563 9.44885C186.563 10.7709 185.712 11.5548 184.201 11.5548H182.367V14.1121H181.238V7.36963H184.201ZM184.03 10.5541C185.041 10.5541 185.41 10.1382 185.41 9.45775C185.41 8.77727 185.041 8.37144 184.03 8.37144H182.362V10.5541H184.03Z" fill="currentColor"/>
<path d="M193.303 13.0858V14.121H188.332V7.36963H193.18V8.40034H189.467V10.1382H192.406V11.1489H189.467V13.0858H193.303Z" fill="currentColor"/>
<path d="M198.546 7.36963H199.651V13.0858H202.042V7.36963H203.154V14.121H195.055V7.36963H196.16V13.0858H198.552L198.546 7.36963Z" fill="currentColor"/>
<path d="M210.294 13.0858V14.121H205.324V7.36963H210.172V8.40034H206.458V10.1382H209.397V11.1489H206.458V13.0858H210.294Z" fill="currentColor"/>
<path d="M217.687 7.36963V14.121H216.553V11.1689H213.18V14.121H212.047V7.36963H213.18V10.1104H216.553V7.36963H217.687Z" fill="currentColor"/>
<path d="M220.928 7.36963V12.6233H221.151L223.939 7.36963H225.545V14.121H224.468V8.86289H224.245L221.454 14.121H219.848V7.36963H220.928Z" fill="currentColor"/>
<path d="M232.847 7.36963V14.121H231.719V11.4325H230.15C229.951 11.4406 229.753 11.4343 229.555 11.4135L228.594 14.121H227.441L228.482 11.1734C228.159 11.0103 227.891 10.7557 227.711 10.4414C227.531 10.1271 227.447 9.76689 227.47 9.40549C227.47 8.12905 228.302 7.37408 229.766 7.37408L232.847 7.36963ZM231.713 8.37032H229.928C228.972 8.37032 228.623 8.73836 228.623 9.40994C228.623 10.0526 228.972 10.4484 229.928 10.4484H231.719L231.713 8.37032Z" fill="currentColor"/>
<path d="M100.514 24.2045V26.8886H99.4026V25.2396H94.6404V26.893H93.5352V24.2045H94.2334C94.8245 22.9073 95.1062 21.4906 95.0562 20.066V18.4883H99.5449V24.2045H100.514ZM98.4352 19.519H96.1147V20.1694C96.1706 21.5507 95.9251 22.9276 95.3953 24.2045H98.4297L98.4352 19.519Z" fill="currentColor"/>
<path d="M102.021 24.12C102.844 24.12 103.184 23.733 103.184 21.1246V18.4883H107.862V25.2396H106.728V19.519H104.241V21.2569C104.241 24.5358 103.562 25.2352 102.031 25.2352H101.809V24.1233L102.021 24.12Z" fill="currentColor"/>
<path d="M115.159 18.4883V25.2396H114.025V22.5511H112.456C112.257 22.5593 112.058 22.5529 111.861 22.5322L110.906 25.2396H109.754L110.792 22.292C110.469 22.1288 110.201 21.8742 110.022 21.5599C109.842 21.2456 109.758 20.8854 109.782 20.5241C109.782 19.2477 110.613 18.4927 112.078 18.4927L115.159 18.4883ZM114.025 19.489H112.239C111.284 19.489 110.935 19.857 110.935 20.5286C110.935 21.1713 111.284 21.5671 112.239 21.5671H114.025V19.489Z" fill="currentColor"/>
<path d="M124.901 21.8139C125.179 21.9501 125.412 22.1633 125.573 22.4282C125.734 22.6931 125.815 22.9986 125.807 23.3083C125.807 24.4035 125.061 25.2352 123.501 25.2352H120.363V18.4883H123.418C124.882 18.4883 125.61 19.2911 125.61 20.2362C125.626 20.5046 125.568 20.7722 125.444 21.0104C125.319 21.2485 125.132 21.4483 124.902 21.5882L124.901 21.8139ZM123.312 21.258C124.144 21.258 124.446 20.9244 124.446 20.3596C124.446 19.7947 124.144 19.4701 123.312 19.4701H121.497V21.2558L123.312 21.258ZM123.35 24.2534C124.296 24.2534 124.645 23.8665 124.645 23.2327C124.645 22.5989 124.296 22.222 123.35 22.222H121.497V24.2534H123.35Z" fill="currentColor"/>
<path d="M133.782 21.862C133.81 22.3019 133.748 22.7431 133.599 23.1581C133.45 23.5731 133.218 23.9532 132.917 24.2748C132.615 24.5964 132.251 24.8528 131.846 25.028C131.441 25.2033 131.005 25.2937 130.564 25.2937C130.123 25.2937 129.687 25.2033 129.283 25.028C128.878 24.8528 128.514 24.5964 128.212 24.2748C127.911 23.9532 127.678 23.5731 127.529 23.1581C127.38 22.7431 127.318 22.3019 127.347 21.862C127.318 21.422 127.38 20.9808 127.529 20.5658C127.678 20.1508 127.911 19.7707 128.212 19.4491C128.514 19.1275 128.878 18.8711 129.283 18.6959C129.687 18.5206 130.123 18.4302 130.564 18.4302C131.005 18.4302 131.441 18.5206 131.846 18.6959C132.251 18.8711 132.615 19.1275 132.917 19.4491C133.218 19.7707 133.45 20.1508 133.599 20.5658C133.748 20.9808 133.81 21.422 133.782 21.862ZM132.629 21.862C132.629 20.5277 131.995 19.3947 130.569 19.3947C129.142 19.3947 128.5 20.5299 128.5 21.862C128.5 23.194 129.132 24.3292 130.569 24.3292C132.005 24.3292 132.629 23.194 132.629 21.862Z" fill="currentColor"/>
<path d="M135.144 24.12C135.967 24.12 136.307 23.733 136.307 21.1246V18.4883H140.985V25.2396H139.851V19.519H137.366V21.2569C137.366 24.5358 136.685 25.2352 135.154 25.2352H134.938V24.1233L135.144 24.12Z" fill="currentColor"/>
<path d="M148.742 23.1938C148.637 23.833 148.296 24.4098 147.787 24.8103C147.278 25.2109 146.638 25.4061 145.992 25.3576C143.961 25.3576 142.816 23.8932 142.816 21.8618C142.816 19.8304 143.969 18.3649 146.001 18.3649C146.612 18.3146 147.221 18.4895 147.712 18.8566C148.204 19.2238 148.544 19.758 148.669 20.3585H147.479C147.386 20.05 147.187 19.7842 146.917 19.6078C146.647 19.4315 146.324 19.356 146.004 19.3945C144.615 19.3945 143.973 20.5298 143.973 21.8618C143.973 23.1938 144.605 24.3291 145.995 24.3291C146.348 24.3604 146.701 24.2626 146.987 24.0538C147.273 23.845 147.474 23.5395 147.552 23.1938H148.742Z" fill="currentColor"/>
<path d="M154.675 18.4883V23.7419H154.897L157.685 18.4883H159.292V25.2396H158.219V19.9815H157.996L155.203 25.2396H153.598V18.4883H154.675Z" fill="currentColor"/>
<path d="M170.101 23.1938C169.996 23.833 169.656 24.4098 169.147 24.8103C168.638 25.2109 167.997 25.4061 167.351 25.3576C165.32 25.3576 164.176 23.8932 164.176 21.8618C164.176 19.8304 165.329 18.3649 167.36 18.3649C167.972 18.3146 168.58 18.4895 169.072 18.8566C169.563 19.2238 169.904 19.758 170.029 20.3585H168.838C168.745 20.05 168.546 19.7842 168.276 19.6078C168.007 19.4315 167.683 19.356 167.364 19.3945C165.975 19.3945 165.332 20.5298 165.332 21.8618C165.332 23.1938 165.965 24.3291 167.355 24.3291C167.708 24.3601 168.06 24.2622 168.346 24.0535C168.632 23.8448 168.833 23.5393 168.911 23.1938H170.101Z" fill="currentColor"/>
<path d="M172.941 18.4883V23.7419H173.163L175.949 18.4883H177.566V25.2396H176.489V19.9815H176.266L173.469 25.2396H171.863V18.4883H172.941Z" fill="currentColor"/>
<path d="M185.295 18.4883V25.2396H184.161V19.519H180.865V25.2396H179.73V18.4883H185.295Z" fill="currentColor"/>
<path id="square" d="M29.2692 0H2.69965C1.20868 0 0 1.20868 0 2.69965V29.2692C0 30.7602 1.20868 31.9689 2.69965 31.9689H29.2692C30.7602 31.9689 31.9689 30.7602 31.9689 29.2692V2.69965C31.9689 1.20868 30.7602 0 29.2692 0Z" fill="currentColor"/>
<path id="shevron" d="M8.08025 25.5488L20.8524 20.8611C21.6693 20.576 22.4035 20.0944 22.9902 19.4585C23.577 18.8227 23.9983 18.0523 24.217 17.2153C24.5187 15.9862 24.3566 14.689 23.7616 13.572C23.1667 12.455 22.1808 11.5966 20.9925 11.1611L8.08025 6.41888C8.02671 6.39935 7.96925 6.39304 7.91276 6.4005C7.85626 6.40796 7.80241 6.42897 7.75578 6.46173C7.70916 6.49449 7.67114 6.53803 7.64497 6.58865C7.61879 6.63927 7.60524 6.69546 7.60547 6.75245V11.3857C7.60532 11.5319 7.65181 11.6744 7.7382 11.7923C7.82459 11.9103 7.94636 11.9977 8.0858 12.0417L18.0394 15.2072C18.1038 15.2268 18.1601 15.2665 18.2002 15.3206C18.2402 15.3746 18.2618 15.4401 18.2618 15.5074V16.4792C18.2616 16.5464 18.24 16.6119 18.1999 16.6659C18.1599 16.7199 18.1037 16.7597 18.0394 16.7794L8.0858 19.9272C7.94627 19.971 7.8244 20.0583 7.73798 20.1763C7.65157 20.2943 7.60514 20.4369 7.60547 20.5832V25.2175C7.60535 25.2744 7.61899 25.3304 7.64524 25.3809C7.67149 25.4314 7.70957 25.4747 7.75622 25.5073C7.80287 25.5399 7.85671 25.5606 7.91313 25.5679C7.96956 25.5751 8.02689 25.5686 8.08025 25.5488Z" fill="currentColor"/>
<path d="M44.8737 7.31052C44.8837 6.99474 44.7837 6.89578 44.4646 6.89801C42.6937 6.90987 40.9232 6.90987 39.1531 6.89801C38.8518 6.89801 38.7617 6.99141 38.7617 7.28939C38.7684 14.3198 38.7695 24.5681 38.7617 31.5985C38.7617 31.9232 38.8729 32.001 39.1776 31.9988C40.9358 31.9854 42.6941 31.9854 44.4523 31.9988C44.7859 31.9988 44.8782 31.8876 44.876 31.5674C44.8615 29.7405 44.866 24.6959 44.876 22.8691C44.876 22.7579 44.9716 22.5522 45.0027 22.5555C45.1684 22.5761 45.3288 22.6278 45.4753 22.7079C45.5464 22.7479 45.5742 22.868 45.622 22.9503C46.2166 23.9845 47.1808 24.7552 48.3206 25.1073C49.4401 25.4542 50.6223 25.5499 51.783 25.3875C52.9173 25.298 54.0083 24.913 54.9476 24.2708C55.8869 23.6286 56.6416 22.7517 57.1367 21.7272C57.7826 20.407 58.1548 18.9698 58.2308 17.502C58.4368 15.4997 58.246 13.4764 57.6693 11.5479C57.4186 10.6284 56.9781 9.77156 56.3762 9.03256C55.7743 8.29357 55.0244 7.68879 54.1746 7.25715C52.6822 6.55257 51.0094 6.3232 49.3824 6.60002C48.5875 6.68122 47.8244 6.95491 47.1591 7.39741C46.4938 7.8399 45.9464 8.43788 45.5642 9.13956C45.5399 9.20542 45.5017 9.26533 45.4524 9.31528C45.403 9.36523 45.3436 9.40408 45.278 9.42923C45.2125 9.45439 45.1423 9.46526 45.0722 9.46113C45.0021 9.45701 44.9337 9.43797 44.8715 9.4053C44.8682 8.70037 44.8537 8.00544 44.8737 7.31052ZM44.8671 13.3836C44.8408 13.1724 44.8631 12.958 44.9324 12.7568C45.0017 12.5555 45.1161 12.3728 45.2668 12.2226C45.4176 12.0724 45.6007 11.9586 45.8022 11.8901C46.0037 11.8215 46.2182 11.7999 46.4293 11.827C47.7531 11.827 49.0774 11.827 50.402 11.827C50.6046 11.8093 50.8086 11.8354 51.0003 11.9034C51.1919 11.9715 51.3666 12.08 51.5127 12.2215C51.6587 12.363 51.7726 12.5342 51.8467 12.7236C51.9208 12.913 51.9533 13.1161 51.942 13.3191C51.9605 15.0863 51.9605 16.8527 51.942 18.6184C51.9574 18.8275 51.9265 19.0374 51.8515 19.2332C51.7764 19.429 51.6591 19.6059 51.5079 19.7511C51.3567 19.8964 51.1753 20.0065 50.9767 20.0736C50.778 20.1408 50.567 20.1632 50.3587 20.1394C49.034 20.1394 47.7094 20.1394 46.3848 20.1394C46.1825 20.16 45.9782 20.1357 45.7864 20.0682C45.5947 20.0007 45.4201 19.8916 45.2754 19.7489C45.1306 19.6061 45.0191 19.4332 44.9489 19.2424C44.8788 19.0515 44.8516 18.8476 44.8693 18.6451C44.8615 17.7555 44.8693 16.866 44.8693 15.9765C44.866 15.1137 44.8637 14.2487 44.8671 13.3836Z" fill="currentColor"/>
<path d="M61.6087 0.71924H67.0859C67.1687 0.71924 67.2482 0.752158 67.3068 0.810752C67.3654 0.869345 67.3983 0.948815 67.3983 1.03168V25.2251C67.3983 25.3086 67.3652 25.3886 67.3062 25.4476C67.2471 25.5067 67.1671 25.5398 67.0837 25.5398H61.6054C61.5225 25.5398 61.4431 25.5069 61.3845 25.4483C61.3259 25.3897 61.293 25.3102 61.293 25.2274V1.03502C61.2928 0.993506 61.3009 0.952378 61.3167 0.914C61.3325 0.875622 61.3558 0.840753 61.3851 0.811401C61.4145 0.782049 61.4494 0.758795 61.4877 0.742978C61.5261 0.727161 61.5672 0.719093 61.6087 0.71924Z" fill="currentColor"/>
<path d="M81.8786 6.67152L69.1075 11.3648C68.2905 11.6497 67.5561 12.1313 66.9691 12.7672C66.3822 13.403 65.9607 14.1735 65.7418 15.0106C65.4404 16.2399 65.6026 17.5371 66.1974 18.6542C66.7923 19.7713 67.7781 20.63 68.9663 21.066L81.8831 25.807C81.9366 25.8268 81.9941 25.8333 82.0507 25.826C82.1073 25.8187 82.1613 25.7977 82.208 25.7649C82.2547 25.7321 82.2927 25.6884 82.3188 25.6376C82.3449 25.5869 82.3583 25.5305 82.3578 25.4735V20.8402C82.3581 20.6942 82.3117 20.5518 82.2255 20.4338C82.1394 20.3159 82.0178 20.2284 81.8786 20.1842L71.9239 17.0187C71.8596 16.999 71.8034 16.9592 71.7634 16.9052C71.7233 16.8511 71.7017 16.7857 71.7015 16.7185V15.7467C71.7017 15.6795 71.7233 15.6141 71.7634 15.56C71.8034 15.506 71.8596 15.4662 71.9239 15.4465L81.8786 12.2988C82.0178 12.2546 82.1394 12.1671 82.2255 12.0492C82.3117 11.9312 82.3581 11.7888 82.3578 11.6427V7.00508C82.3583 6.94756 82.3448 6.89078 82.3184 6.83968C82.292 6.78857 82.2535 6.74468 82.2063 6.71182C82.159 6.67895 82.1045 6.6581 82.0474 6.65108C81.9903 6.64406 81.9324 6.65107 81.8786 6.67152Z" fill="currentColor"/>
</g>
<defs>
<clipPath id="clip0_800_3230">
<rect width="232.845" height="32" fill="white"/>
</clipPath>
</defs>
</svg>
