<svg width="83" height="32" viewBox="0 0 83 32" fill="none" xmlns="http://www.w3.org/2000/svg">
<g clip-path="url(#clip0_807_5685)">
<path d="M29.8923 0H3.3227C1.83172 0 0.623047 1.20868 0.623047 2.69965V29.2692C0.623047 30.7602 1.83172 31.9689 3.3227 31.9689H29.8923C31.3832 31.9689 32.5919 30.7602 32.5919 29.2692V2.69965C32.5919 1.20868 31.3832 0 29.8923 0Z" fill="#E6360C"/>
<path d="M8.70329 25.5488L21.4755 20.8611C22.2923 20.576 23.0265 20.0944 23.6133 19.4585C24.2 18.8227 24.6213 18.0523 24.8401 17.2153C25.1417 15.9862 24.9796 14.689 24.3847 13.572C23.7898 12.455 22.8038 11.5966 21.6156 11.1611L8.70329 6.41888C8.64976 6.39935 8.5923 6.39304 8.53581 6.4005C8.47931 6.40796 8.42546 6.42897 8.37883 6.46173C8.3322 6.49449 8.29418 6.53803 8.26801 6.58865C8.24184 6.63927 8.22829 6.69546 8.22852 6.75245V11.3857C8.22836 11.5319 8.27486 11.6744 8.36125 11.7923C8.44763 11.9103 8.5694 11.9977 8.70885 12.0417L18.6624 15.2072C18.7268 15.2268 18.7832 15.2665 18.8232 15.3206C18.8633 15.3746 18.8849 15.4401 18.8848 15.5074V16.4792C18.8847 16.5464 18.863 16.6119 18.823 16.6659C18.783 16.7199 18.7267 16.7597 18.6624 16.7794L8.70885 19.9272C8.56931 19.971 8.44744 20.0583 8.36103 20.1763C8.27462 20.2943 8.22819 20.4369 8.22852 20.5832V25.2175C8.22839 25.2744 8.24204 25.3304 8.26829 25.3809C8.29454 25.4314 8.33262 25.4747 8.37927 25.5073C8.42592 25.5399 8.47975 25.5606 8.53618 25.5679C8.5926 25.5751 8.64994 25.5686 8.70329 25.5488Z" fill="white"/>
<path d="M45.4968 7.31052C45.5068 6.99474 45.4067 6.89578 45.0876 6.89801C43.3168 6.90987 41.5463 6.90987 39.7761 6.89801C39.4748 6.89801 39.3848 6.99141 39.3848 7.28939C39.3914 14.3198 39.3925 24.5681 39.3848 31.5985C39.3848 31.9232 39.496 32.001 39.8006 31.9988C41.5589 31.9854 43.3171 31.9854 45.0754 31.9988C45.4089 31.9988 45.5012 31.8876 45.499 31.5674C45.4846 29.7405 45.489 24.6959 45.499 22.8691C45.499 22.7579 45.5946 22.5522 45.6258 22.5555C45.7915 22.5761 45.9518 22.6278 46.0983 22.7079C46.1695 22.7479 46.1973 22.868 46.2451 22.9503C46.8397 23.9845 47.8038 24.7552 48.9436 25.1073C50.0631 25.4542 51.2453 25.5499 52.406 25.3875C53.5403 25.298 54.6314 24.913 55.5707 24.2708C56.5099 23.6286 57.2647 22.7516 57.7597 21.7272C58.4057 20.407 58.7778 18.9698 58.8538 17.502C59.0598 15.4997 58.869 13.4764 58.2923 11.5479C58.0416 10.6284 57.6011 9.77156 56.9993 9.03256C56.3974 8.29357 55.6474 7.68879 54.7977 7.25715C53.3053 6.55257 51.6325 6.3232 50.0055 6.60002C49.2106 6.68122 48.4475 6.95491 47.7822 7.39741C47.1169 7.8399 46.5694 8.43788 46.1873 9.13956C46.1629 9.20542 46.1248 9.26533 46.0754 9.31528C46.0261 9.36523 45.9666 9.40408 45.9011 9.42923C45.8355 9.45439 45.7653 9.46526 45.6952 9.46113C45.6251 9.45701 45.5567 9.43797 45.4946 9.4053C45.4912 8.70037 45.4768 8.00544 45.4968 7.31052ZM45.4901 13.3836C45.4638 13.1724 45.4861 12.958 45.5554 12.7568C45.6247 12.5555 45.7391 12.3728 45.8899 12.2226C46.0406 12.0724 46.2238 11.9586 46.4252 11.8901C46.6267 11.8215 46.8412 11.7999 47.0523 11.827C48.3762 11.827 49.7004 11.827 51.0251 11.827C51.2277 11.8093 51.4317 11.8354 51.6233 11.9034C51.8149 11.9715 51.9897 12.08 52.1357 12.2215C52.2818 12.363 52.3957 12.5342 52.4698 12.7236C52.5438 12.913 52.5763 13.1161 52.565 13.3191C52.5836 15.0863 52.5836 16.8527 52.565 18.6184C52.5804 18.8275 52.5495 19.0374 52.4745 19.2332C52.3995 19.429 52.2822 19.6059 52.131 19.7511C51.9798 19.8964 51.7984 20.0065 51.5997 20.0736C51.4011 20.1408 51.19 20.1632 50.9817 20.1394C49.6571 20.1394 48.3325 20.1394 47.0078 20.1394C46.8056 20.16 46.6013 20.1357 46.4095 20.0682C46.2177 20.0007 46.0432 19.8916 45.8984 19.7489C45.7537 19.6061 45.6422 19.4332 45.572 19.2424C45.5018 19.0515 45.4746 18.8476 45.4923 18.6451C45.4846 17.7555 45.4923 16.866 45.4923 15.9765C45.489 15.1137 45.4868 14.2487 45.4901 13.3836Z" fill="currentColor"/>
<path d="M62.2318 0.71924H67.7089C67.7918 0.71924 67.8713 0.752158 67.9299 0.810752C67.9885 0.869345 68.0214 0.948815 68.0214 1.03168V25.2251C68.0214 25.3086 67.9882 25.3886 67.9292 25.4476C67.8702 25.5067 67.7902 25.5398 67.7067 25.5398H62.2285C62.1456 25.5398 62.0661 25.5069 62.0075 25.4483C61.9489 25.3897 61.916 25.3102 61.916 25.2274V1.03502C61.9159 0.993506 61.9239 0.952378 61.9398 0.914C61.9556 0.875622 61.9788 0.840753 62.0082 0.811401C62.0375 0.782049 62.0724 0.758795 62.1108 0.742978C62.1492 0.727161 62.1903 0.719093 62.2318 0.71924Z" fill="currentColor"/>
<path d="M82.5017 6.67152L69.7306 11.3648C68.9135 11.6497 68.1791 12.1313 67.5922 12.7672C67.0052 13.403 66.5837 14.1735 66.3649 15.0106C66.0634 16.2399 66.2256 17.5371 66.8205 18.6542C67.4154 19.7713 68.4012 20.63 69.5894 21.066L82.5061 25.807C82.5596 25.8268 82.6172 25.8333 82.6738 25.826C82.7304 25.8187 82.7843 25.7977 82.8311 25.7649C82.8778 25.7321 82.9158 25.6884 82.9419 25.6376C82.968 25.5869 82.9814 25.5305 82.9809 25.4735V20.8402C82.9811 20.6942 82.9348 20.5518 82.8486 20.4338C82.7624 20.3159 82.6409 20.2284 82.5017 20.1842L72.547 17.0187C72.4827 16.999 72.4264 16.9592 72.3864 16.9052C72.3464 16.8511 72.3247 16.7857 72.3246 16.7185V15.7467C72.3247 15.6795 72.3464 15.6141 72.3864 15.56C72.4264 15.506 72.4827 15.4662 72.547 15.4465L82.5017 12.2988C82.6409 12.2546 82.7624 12.1671 82.8486 12.0492C82.9348 11.9312 82.9811 11.7888 82.9809 11.6427V7.00508C82.9814 6.94756 82.9678 6.89078 82.9414 6.83968C82.915 6.78857 82.8765 6.74468 82.8293 6.71182C82.7821 6.67895 82.7276 6.6581 82.6705 6.65108C82.6134 6.64406 82.5554 6.65107 82.5017 6.67152Z" fill="currentColor"/>
</g>
<defs>
<clipPath id="clip0_807_5685">
<rect width="82.3527" height="32" fill="white" transform="translate(0.623047)"/>
</clipPath>
</defs>
</svg>
