<svg width="119" height="12" viewBox="0 0 119 12" fill="none" xmlns="http://www.w3.org/2000/svg">
<g clip-path="url(#clip0_831_4570)">
<path d="M10.2584 0.0892562V11.0241H7.20291V2.54021H3.04612V11.0178H0V0.0830078L10.2584 0.0892562Z" fill="currentColor"/>
<path d="M15.7461 0.0893555H18.7922V6.50652L23.3036 0.0893555H26.2076V11.0241H23.1646V4.61948L18.6672 11.0241H15.7461V0.0893555Z" fill="currentColor"/>
<path d="M41.8422 0.0893555V11.0241H38.7976V2.54031H35.6609L35.5968 4.32112C35.4578 8.58257 34.8798 11.2069 32.0993 11.2069C31.6248 11.1995 31.1529 11.1361 30.6934 11.0179L30.8652 8.48884C31.0036 8.52035 31.145 8.53659 31.287 8.53727C32.5507 8.53727 32.785 6.91267 32.8788 4.44609L33.035 0.0893555H41.8422Z" fill="currentColor"/>
<path d="M47.3281 0.0893555H50.3727V6.50652L54.8856 0.0893555H57.7896V11.0241H54.745V4.61948L50.2477 11.0241H47.3281V0.0893555Z" fill="currentColor"/>
<path d="M71.2718 2.54021H66.3231V11.0178H63.2832V0.0830078H71.2937L71.2718 2.54021Z" fill="currentColor"/>
<path d="M85.6206 4.12732C85.6206 6.60952 83.7461 8.15445 80.7671 8.15445H78.8613V11.0178H75.7637V0.0830078H80.7624C83.7461 0.0892563 85.6206 1.63575 85.6206 4.12732ZM82.4964 4.12732C82.4964 3.11195 81.8559 2.51834 80.575 2.51834H78.8567V5.72536H80.575C81.8528 5.72536 82.4964 5.13176 82.4964 4.12732Z" fill="currentColor"/>
<path d="M90.2148 0.0893555H93.2594V6.50652L97.7708 0.0893555H100.676V11.0241H97.6302V4.61948L93.1344 11.0241H90.2148V0.0893555Z" fill="currentColor"/>
<path d="M116.013 11.0178L115.997 5.2208L113.185 9.93682H111.812L109 5.34577V11.0178H106.162V0.0830078H108.707L112.546 6.39082L116.296 0.0830078H118.84L118.87 11.0178H116.013Z" fill="currentColor"/>
</g>
<defs>
<clipPath id="clip0_831_4570">
<rect width="118.871" height="11.116" fill="white" transform="translate(0 0.0893555)"/>
</clipPath>
</defs>
</svg>
