<svg width="233" height="33" viewBox="0 0 233 33" fill="none" xmlns="http://www.w3.org/2000/svg">
<g clip-path="url(#clip0_800_3265)">
<path d="M94.2148 8.03613H95.349V10.7947H97.1791L98.4734 8.03613H99.6453L98.1331 11.3151L99.7242 14.7875H98.5523L97.1736 11.8299H95.349V14.7875H94.2148V8.03613Z" fill="white"/>
<path d="M107.286 11.4093C107.314 11.8493 107.252 12.2904 107.103 12.7054C106.954 13.1205 106.722 13.5005 106.42 13.8221C106.119 14.1438 105.754 14.4001 105.35 14.5754C104.945 14.7507 104.509 14.8411 104.068 14.8411C103.627 14.8411 103.191 14.7507 102.787 14.5754C102.382 14.4001 102.018 14.1438 101.716 13.8221C101.414 13.5005 101.182 13.1205 101.033 12.7054C100.884 12.2904 100.822 11.8493 100.85 11.4093C100.822 10.9693 100.884 10.5282 101.033 10.1132C101.182 9.69817 101.414 9.31811 101.716 8.99648C102.018 8.67484 102.382 8.41847 102.787 8.24322C103.191 8.06796 103.627 7.97754 104.068 7.97754C104.509 7.97754 104.945 8.06796 105.35 8.24322C105.754 8.41847 106.119 8.67484 106.42 8.99648C106.722 9.31811 106.954 9.69817 107.103 10.1132C107.252 10.5282 107.314 10.9693 107.286 11.4093ZM106.133 11.4093C106.133 10.0751 105.499 8.94204 104.073 8.94204C102.646 8.94204 102.003 10.0773 102.003 11.4093C102.003 12.7413 102.636 13.8766 104.073 13.8766C105.509 13.8766 106.133 12.7413 106.133 11.4093Z" fill="white"/>
<path d="M109.125 8.03613H110.92L112.318 10.9748H112.541L113.921 8.03613H115.725V14.7875H114.649V9.38818H114.426L112.999 12.3458H111.846L110.428 9.38818H110.206V14.7875H109.129L109.125 8.03613Z" fill="white"/>
<path d="M123.467 8.03613V14.7875H122.334V9.06685H119.036V14.7875H117.902V8.03613H123.467Z" fill="white"/>
<path d="M125.272 13.6678C126.095 13.6678 126.435 13.2809 126.435 10.6724V8.03613H131.113V14.7875H129.978V9.06685H127.493V10.8047C127.493 14.0837 126.812 14.783 125.281 14.783H125.059V13.6712L125.272 13.6678Z" fill="white"/>
<path d="M138.247 13.7523V14.7875H133.277V8.03613H138.125V9.06685H134.411V10.8047H137.35V11.8154H134.411V13.7523H138.247Z" fill="white"/>
<path d="M140 8.03613H141.133V10.7947H142.958L144.252 8.03613H145.424L143.912 11.3151L145.508 14.783H144.336L142.958 11.8254H141.133V14.7875H140V8.03613Z" fill="white"/>
<path d="M152.562 12.7417C152.457 13.3809 152.117 13.9576 151.608 14.3582C151.099 14.7587 150.458 14.954 149.812 14.9054C147.781 14.9054 146.637 13.4411 146.637 11.4096C146.637 9.37824 147.789 7.91278 149.821 7.91278C150.433 7.86245 151.041 8.03733 151.533 8.4045C152.024 8.77167 152.365 9.3058 152.49 9.90638H151.299C151.206 9.59798 151.007 9.33228 150.737 9.15597C150.468 8.97966 150.144 8.90404 149.824 8.94238C148.436 8.94238 147.792 10.0776 147.792 11.4096C147.792 12.7417 148.426 13.8769 149.816 13.8769C150.169 13.9082 150.521 13.8104 150.807 13.6016C151.093 13.3929 151.294 13.0873 151.372 12.7417H152.562Z" fill="white"/>
<path d="M159.966 8.03613V14.7875H158.831V11.8354H155.458V14.7875H154.328V8.03613H155.462V10.7769H158.836V8.03613H159.966Z" fill="white"/>
<path d="M162.133 14.7875V8.03613H163.267V10.4734H164.874C166.424 10.4734 167.302 11.2673 167.302 12.6193C167.302 13.9714 166.424 14.783 164.874 14.783L162.133 14.7875ZM164.69 13.7868C165.758 13.7868 166.144 13.352 166.144 12.6249C166.144 11.8977 165.758 11.4819 164.69 11.4819H163.262V13.7868H164.69ZM169.263 8.04169V14.7875H168.12V8.03613L169.263 8.04169Z" fill="white"/>
<path d="M176.405 13.7523V14.7875H171.434V8.03613H176.283V9.06685H172.567V10.8047H175.505V11.8154H172.567V13.7523H176.405Z" fill="white"/>
<path d="M184.201 8.03613C185.712 8.03613 186.563 8.82001 186.563 10.1154C186.563 11.4374 185.712 12.2213 184.201 12.2213H182.367V14.7786H181.238V8.03613H184.201ZM184.03 11.2206C185.041 11.2206 185.41 10.8047 185.41 10.1242C185.41 9.44378 185.041 9.03794 184.03 9.03794H182.362V11.2206H184.03Z" fill="white"/>
<path d="M193.303 13.7523V14.7875H188.332V8.03613H193.18V9.06685H189.467V10.8047H192.406V11.8154H189.467V13.7523H193.303Z" fill="white"/>
<path d="M198.546 8.03613H199.651V13.7523H202.042V8.03613H203.154V14.7875H195.055V8.03613H196.16V13.7523H198.552L198.546 8.03613Z" fill="white"/>
<path d="M210.294 13.7523V14.7875H205.324V8.03613H210.172V9.06685H206.458V10.8047H209.397V11.8154H206.458V13.7523H210.294Z" fill="white"/>
<path d="M217.687 8.03613V14.7875H216.553V11.8354H213.18V14.7875H212.047V8.03613H213.18V10.7769H216.553V8.03613H217.687Z" fill="white"/>
<path d="M220.928 8.03613V13.2898H221.151L223.939 8.03613H225.545V14.7875H224.468V9.52939H224.245L221.454 14.7875H219.848V8.03613H220.928Z" fill="white"/>
<path d="M232.847 8.03613V14.7875H231.719V12.099H230.15C229.951 12.1071 229.753 12.1008 229.555 12.0801L228.594 14.7875H227.441L228.482 11.8399C228.159 11.6768 227.891 11.4222 227.711 11.1079C227.531 10.7936 227.447 10.4334 227.47 10.072C227.47 8.79555 228.302 8.04058 229.766 8.04058L232.847 8.03613ZM231.713 9.03683H229.928C228.972 9.03683 228.623 9.40486 228.623 10.0764C228.623 10.7191 228.972 11.1149 229.928 11.1149H231.719L231.713 9.03683Z" fill="white"/>
<path d="M100.514 24.871V27.5551H99.4026V25.9061H94.6404V27.5595H93.5352V24.871H94.2334C94.8245 23.5738 95.1062 22.1571 95.0562 20.7325V19.1548H99.5449V24.871H100.514ZM98.4352 20.1855H96.1147V20.836C96.1706 22.2172 95.9251 23.5941 95.3953 24.871H98.4297L98.4352 20.1855Z" fill="white"/>
<path d="M102.021 24.7865C102.844 24.7865 103.184 24.3995 103.184 21.7911V19.1548H107.862V25.9061H106.728V20.1855H104.241V21.9234C104.241 25.2023 103.562 25.9017 102.031 25.9017H101.809V24.7898L102.021 24.7865Z" fill="white"/>
<path d="M115.159 19.1548V25.9061H114.025V23.2176H112.456C112.257 23.2258 112.058 23.2195 111.861 23.1987L110.906 25.9061H109.754L110.792 22.9585C110.469 22.7953 110.201 22.5407 110.022 22.2264C109.842 21.9121 109.758 21.5519 109.782 21.1906C109.782 19.9142 110.613 19.1592 112.078 19.1592L115.159 19.1548ZM114.025 20.1555H112.239C111.284 20.1555 110.935 20.5235 110.935 21.1951C110.935 21.8378 111.284 22.2336 112.239 22.2336H114.025V20.1555Z" fill="white"/>
<path d="M124.901 22.4804C125.179 22.6166 125.412 22.8298 125.573 23.0947C125.734 23.3596 125.815 23.6651 125.807 23.9748C125.807 25.07 125.061 25.9017 123.501 25.9017H120.363V19.1548H123.418C124.882 19.1548 125.61 19.9576 125.61 20.9027C125.626 21.1711 125.568 21.4387 125.444 21.6769C125.319 21.915 125.132 22.1148 124.902 22.2547L124.901 22.4804ZM123.312 21.9245C124.144 21.9245 124.446 21.5909 124.446 21.0261C124.446 20.4612 124.144 20.1366 123.312 20.1366H121.497V21.9223L123.312 21.9245ZM123.35 24.9199C124.296 24.9199 124.645 24.533 124.645 23.8992C124.645 23.2654 124.296 22.8885 123.35 22.8885H121.497V24.9199H123.35Z" fill="white"/>
<path d="M133.782 22.5285C133.81 22.9684 133.748 23.4096 133.599 23.8246C133.45 24.2396 133.218 24.6197 132.917 24.9413C132.615 25.2629 132.251 25.5193 131.846 25.6945C131.441 25.8698 131.005 25.9602 130.564 25.9602C130.123 25.9602 129.687 25.8698 129.283 25.6945C128.878 25.5193 128.514 25.2629 128.212 24.9413C127.911 24.6197 127.678 24.2396 127.529 23.8246C127.38 23.4096 127.318 22.9684 127.347 22.5285C127.318 22.0885 127.38 21.6473 127.529 21.2323C127.678 20.8173 127.911 20.4372 128.212 20.1156C128.514 19.794 128.878 19.5376 129.283 19.3624C129.687 19.1871 130.123 19.0967 130.564 19.0967C131.005 19.0967 131.441 19.1871 131.846 19.3624C132.251 19.5376 132.615 19.794 132.917 20.1156C133.218 20.4372 133.45 20.8173 133.599 21.2323C133.748 21.6473 133.81 22.0885 133.782 22.5285ZM132.629 22.5285C132.629 21.1942 131.995 20.0612 130.569 20.0612C129.142 20.0612 128.5 21.1964 128.5 22.5285C128.5 23.8605 129.132 24.9957 130.569 24.9957C132.005 24.9957 132.629 23.8605 132.629 22.5285Z" fill="white"/>
<path d="M135.144 24.7865C135.967 24.7865 136.307 24.3995 136.307 21.7911V19.1548H140.985V25.9061H139.851V20.1855H137.366V21.9234C137.366 25.2023 136.685 25.9017 135.154 25.9017H134.938V24.7898L135.144 24.7865Z" fill="white"/>
<path d="M148.742 23.8603C148.637 24.4995 148.296 25.0763 147.787 25.4768C147.278 25.8774 146.638 26.0726 145.992 26.0241C143.961 26.0241 142.816 24.5597 142.816 22.5283C142.816 20.4969 143.969 19.0314 146.001 19.0314C146.612 18.9811 147.221 19.156 147.712 19.5232C148.204 19.8903 148.544 20.4245 148.669 21.025H147.479C147.386 20.7165 147.187 20.4507 146.917 20.2743C146.647 20.098 146.324 20.0225 146.004 20.061C144.615 20.061 143.973 21.1963 143.973 22.5283C143.973 23.8603 144.605 24.9956 145.995 24.9956C146.348 25.0269 146.701 24.9291 146.987 24.7203C147.273 24.5115 147.474 24.206 147.552 23.8603H148.742Z" fill="white"/>
<path d="M154.675 19.1548V24.4084H154.897L157.685 19.1548H159.292V25.9061H158.219V20.648H157.996L155.203 25.9061H153.598V19.1548H154.675Z" fill="white"/>
<path d="M170.101 23.8603C169.996 24.4995 169.656 25.0763 169.147 25.4768C168.638 25.8774 167.997 26.0726 167.351 26.0241C165.32 26.0241 164.176 24.5597 164.176 22.5283C164.176 20.4969 165.329 19.0314 167.36 19.0314C167.972 18.9811 168.58 19.156 169.072 19.5232C169.563 19.8903 169.904 20.4245 170.029 21.025H168.838C168.745 20.7165 168.546 20.4507 168.276 20.2743C168.007 20.098 167.683 20.0225 167.364 20.061C165.975 20.061 165.332 21.1963 165.332 22.5283C165.332 23.8603 165.965 24.9956 167.355 24.9956C167.708 25.0266 168.06 24.9287 168.346 24.72C168.632 24.5113 168.833 24.2058 168.911 23.8603H170.101Z" fill="white"/>
<path d="M172.941 19.1548V24.4084H173.163L175.949 19.1548H177.566V25.9061H176.489V20.648H176.266L173.469 25.9061H171.863V19.1548H172.941Z" fill="white"/>
<path d="M185.295 19.1548V25.9061H184.161V20.1855H180.865V25.9061H179.73V19.1548H185.295Z" fill="white"/>
<path d="M29.2692 0.666504H2.69965C1.20868 0.666504 0 1.87518 0 3.36616V29.9357C0 31.4267 1.20868 32.6354 2.69965 32.6354H29.2692C30.7602 32.6354 31.9689 31.4267 31.9689 29.9357V3.36616C31.9689 1.87518 30.7602 0.666504 29.2692 0.666504Z" fill="#E6360C"/>
<path d="M8.08025 26.2153L20.8524 21.5276C21.6693 21.2425 22.4035 20.7609 22.9902 20.125C23.577 19.4892 23.9983 18.7188 24.217 17.8818C24.5187 16.6527 24.3566 15.3555 23.7616 14.2385C23.1667 13.1215 22.1808 12.2631 20.9925 11.8276L8.08025 7.08539C8.02671 7.06585 7.96925 7.05955 7.91276 7.06701C7.85626 7.07447 7.80241 7.09547 7.75578 7.12823C7.70916 7.16099 7.67114 7.20453 7.64497 7.25515C7.61879 7.30577 7.60524 7.36197 7.60547 7.41895V12.0522C7.60532 12.1984 7.65181 12.3409 7.7382 12.4588C7.82459 12.5768 7.94636 12.6642 8.0858 12.7082L18.0394 15.8737C18.1038 15.8933 18.1601 15.933 18.2002 15.9871C18.2402 16.0411 18.2618 16.1066 18.2618 16.1739V17.1457C18.2616 17.2129 18.24 17.2784 18.1999 17.3324C18.1599 17.3864 18.1037 17.4262 18.0394 17.4459L8.0858 20.5937C7.94627 20.6375 7.8244 20.7248 7.73798 20.8428C7.65157 20.9609 7.60514 21.1034 7.60547 21.2497V25.884C7.60535 25.9409 7.61899 25.997 7.64524 26.0474C7.67149 26.0979 7.70957 26.1413 7.75622 26.1738C7.80287 26.2064 7.85671 26.2271 7.91313 26.2344C7.96956 26.2416 8.02689 26.2351 8.08025 26.2153Z" fill="white"/>
<path d="M44.8737 7.97702C44.8837 7.66124 44.7837 7.56229 44.4646 7.56451C42.6937 7.57637 40.9232 7.57637 39.1531 7.56451C38.8518 7.56451 38.7617 7.65791 38.7617 7.95589C38.7684 14.9863 38.7695 25.2346 38.7617 32.265C38.7617 32.5897 38.8729 32.6675 39.1776 32.6653C40.9358 32.6519 42.6941 32.6519 44.4523 32.6653C44.7859 32.6653 44.8782 32.5541 44.876 32.2339C44.8615 30.407 44.866 25.3624 44.876 23.5356C44.876 23.4244 44.9716 23.2187 45.0027 23.2221C45.1684 23.2426 45.3288 23.2943 45.4753 23.3744C45.5464 23.4144 45.5742 23.5345 45.622 23.6168C46.2166 24.651 47.1808 25.4217 48.3206 25.7738C49.4401 26.1207 50.6223 26.2164 51.783 26.054C52.9173 25.9645 54.0083 25.5795 54.9476 24.9373C55.8869 24.2951 56.6416 23.4182 57.1367 22.3937C57.7826 21.0735 58.1548 19.6363 58.2308 18.1685C58.4368 16.1662 58.246 14.1429 57.6693 12.2144C57.4186 11.2949 56.9781 10.4381 56.3762 9.69907C55.7743 8.96007 55.0244 8.35529 54.1746 7.92365C52.6822 7.21908 51.0094 6.9897 49.3824 7.26653C48.5875 7.34772 47.8244 7.62141 47.1591 8.06391C46.4938 8.50641 45.9464 9.10438 45.5642 9.80607C45.5399 9.87193 45.5017 9.93183 45.4524 9.98179C45.403 10.0317 45.3436 10.0706 45.278 10.0957C45.2125 10.1209 45.1423 10.1318 45.0722 10.1276C45.0021 10.1235 44.9337 10.1045 44.8715 10.0718C44.8682 9.36687 44.8537 8.67195 44.8737 7.97702ZM44.8671 14.0501C44.8408 13.8389 44.8631 13.6245 44.9324 13.4233C45.0017 13.222 45.1161 13.0393 45.2668 12.8891C45.4176 12.7389 45.6007 12.6251 45.8022 12.5566C46.0037 12.488 46.2182 12.4664 46.4293 12.4935C47.7531 12.4935 49.0774 12.4935 50.402 12.4935C50.6046 12.4758 50.8086 12.5019 51.0003 12.5699C51.1919 12.638 51.3666 12.7465 51.5127 12.888C51.6587 13.0295 51.7726 13.2007 51.8467 13.3901C51.9208 13.5795 51.9533 13.7826 51.942 13.9856C51.9605 15.7528 51.9605 17.5192 51.942 19.2849C51.9574 19.494 51.9265 19.7039 51.8515 19.8997C51.7764 20.0955 51.6591 20.2724 51.5079 20.4176C51.3567 20.5629 51.1753 20.673 50.9767 20.7401C50.778 20.8073 50.567 20.8297 50.3587 20.8059C49.034 20.8059 47.7094 20.8059 46.3848 20.8059C46.1825 20.8265 45.9782 20.8022 45.7864 20.7347C45.5947 20.6672 45.4201 20.5581 45.2754 20.4154C45.1306 20.2726 45.0191 20.0997 44.9489 19.9089C44.8788 19.7181 44.8516 19.5141 44.8693 19.3116C44.8615 18.4221 44.8693 17.5325 44.8693 16.643C44.866 15.7802 44.8637 14.9152 44.8671 14.0501Z" fill="white"/>
<path d="M61.6087 1.38574H67.0859C67.1687 1.38574 67.2482 1.41866 67.3068 1.47726C67.3654 1.53585 67.3983 1.61532 67.3983 1.69818V25.8917C67.3983 25.9751 67.3652 26.0551 67.3062 26.1142C67.2471 26.1732 67.1671 26.2063 67.0837 26.2063H61.6054C61.5225 26.2063 61.4431 26.1734 61.3845 26.1148C61.3259 26.0562 61.293 25.9767 61.293 25.8939V1.70152C61.2928 1.66001 61.3009 1.61888 61.3167 1.5805C61.3325 1.54213 61.3558 1.50726 61.3851 1.4779C61.4145 1.44855 61.4494 1.4253 61.4877 1.40948C61.5261 1.39366 61.5672 1.3856 61.6087 1.38574Z" fill="white"/>
<path d="M81.8786 7.33802L69.1075 12.0313C68.2905 12.3162 67.5561 12.7978 66.9691 13.4337C66.3822 14.0695 65.9607 14.84 65.7418 15.6771C65.4404 16.9064 65.6026 18.2036 66.1974 19.3207C66.7923 20.4378 67.7781 21.2965 68.9663 21.7325L81.8831 26.4735C81.9366 26.4933 81.9941 26.4999 82.0507 26.4925C82.1073 26.4852 82.1613 26.4642 82.208 26.4314C82.2547 26.3986 82.2927 26.3549 82.3188 26.3041C82.3449 26.2534 82.3583 26.197 82.3578 26.14V21.5067C82.3581 21.3607 82.3117 21.2183 82.2255 21.1003C82.1394 20.9824 82.0178 20.8949 81.8786 20.8507L71.9239 17.6852C71.8596 17.6655 71.8034 17.6257 71.7634 17.5717C71.7233 17.5177 71.7017 17.4522 71.7015 17.385V16.4132C71.7017 16.346 71.7233 16.2806 71.7634 16.2265C71.8034 16.1725 71.8596 16.1327 71.9239 16.113L81.8786 12.9653C82.0178 12.9211 82.1394 12.8336 82.2255 12.7157C82.3117 12.5977 82.3581 12.4553 82.3578 12.3093V7.67159C82.3583 7.61406 82.3448 7.55728 82.3184 7.50618C82.292 7.45507 82.2535 7.41118 82.2063 7.37832C82.159 7.34546 82.1045 7.32461 82.0474 7.31759C81.9903 7.31056 81.9324 7.31758 81.8786 7.33802Z" fill="white"/>
</g>
<defs>
<clipPath id="clip0_800_3265">
<rect width="232.845" height="32" fill="white" transform="translate(0 0.666504)"/>
</clipPath>
</defs>
</svg>
