<svg width="233" height="33" viewBox="0 0 233 33" fill="none" xmlns="http://www.w3.org/2000/svg">
<g clip-path="url(#clip0_801_11310)">
<path d="M94.2148 7.70264H95.349V10.4612H97.1791L98.4734 7.70264H99.6453L98.1331 10.9816L99.7242 14.454H98.5523L97.1736 11.4964H95.349V14.454H94.2148V7.70264Z" fill="#E6360C"/>
<path d="M107.286 11.0758C107.314 11.5158 107.252 11.9569 107.103 12.3719C106.954 12.787 106.722 13.167 106.42 13.4887C106.119 13.8103 105.754 14.0667 105.35 14.2419C104.945 14.4172 104.509 14.5076 104.068 14.5076C103.627 14.5076 103.191 14.4172 102.787 14.2419C102.382 14.0667 102.018 13.8103 101.716 13.4887C101.414 13.167 101.182 12.787 101.033 12.3719C100.884 11.9569 100.822 11.5158 100.85 11.0758C100.822 10.6358 100.884 10.1947 101.033 9.77968C101.182 9.36468 101.414 8.98461 101.716 8.66298C102.018 8.34135 102.382 8.08498 102.787 7.90972C103.191 7.73447 103.627 7.64404 104.068 7.64404C104.509 7.64404 104.945 7.73447 105.35 7.90972C105.754 8.08498 106.119 8.34135 106.42 8.66298C106.722 8.98461 106.954 9.36468 107.103 9.77968C107.252 10.1947 107.314 10.6358 107.286 11.0758ZM106.133 11.0758C106.133 9.74156 105.499 8.60855 104.073 8.60855C102.646 8.60855 102.003 9.74378 102.003 11.0758C102.003 12.4079 102.636 13.5431 104.073 13.5431C105.509 13.5431 106.133 12.4079 106.133 11.0758Z" fill="#E6360C"/>
<path d="M109.125 7.70264H110.92L112.318 10.6413H112.541L113.921 7.70264H115.725V14.454H114.649V9.05469H114.426L112.999 12.0123H111.846L110.428 9.05469H110.206V14.454H109.129L109.125 7.70264Z" fill="#E6360C"/>
<path d="M123.467 7.70264V14.454H122.334V8.73335H119.036V14.454H117.902V7.70264H123.467Z" fill="#E6360C"/>
<path d="M125.272 13.3343C126.095 13.3343 126.435 12.9474 126.435 10.3389V7.70264H131.113V14.454H129.978V8.73335H127.493V10.4712C127.493 13.7502 126.812 14.4495 125.281 14.4495H125.059V13.3377L125.272 13.3343Z" fill="#E6360C"/>
<path d="M138.247 13.4188V14.454H133.277V7.70264H138.125V8.73335H134.411V10.4712H137.35V11.4819H134.411V13.4188H138.247Z" fill="#E6360C"/>
<path d="M140 7.70264H141.133V10.4612H142.958L144.252 7.70264H145.424L143.912 10.9816L145.508 14.4495H144.336L142.958 11.4919H141.133V14.454H140V7.70264Z" fill="#E6360C"/>
<path d="M152.562 12.4082C152.457 13.0474 152.117 13.6241 151.608 14.0247C151.099 14.4252 150.458 14.6205 149.812 14.5719C147.781 14.5719 146.637 13.1076 146.637 11.0762C146.637 9.04474 147.789 7.57928 149.821 7.57928C150.433 7.52896 151.041 7.70384 151.533 8.071C152.024 8.43817 152.365 8.97231 152.49 9.57289H151.299C151.206 9.26448 151.007 8.99878 150.737 8.82247C150.468 8.64617 150.144 8.57054 149.824 8.60888C148.436 8.60888 147.792 9.74412 147.792 11.0762C147.792 12.4082 148.426 13.5434 149.816 13.5434C150.169 13.5747 150.521 13.4769 150.807 13.2682C151.093 13.0594 151.294 12.7538 151.372 12.4082H152.562Z" fill="#E6360C"/>
<path d="M159.966 7.70264V14.454H158.831V11.5019H155.458V14.454H154.328V7.70264H155.462V10.4434H158.836V7.70264H159.966Z" fill="#E6360C"/>
<path d="M162.133 14.454V7.70264H163.267V10.1399H164.874C166.424 10.1399 167.302 10.9338 167.302 12.2858C167.302 13.6379 166.424 14.4495 164.874 14.4495L162.133 14.454ZM164.69 13.4533C165.758 13.4533 166.144 13.0186 166.144 12.2914C166.144 11.5642 165.758 11.1484 164.69 11.1484H163.262V13.4533H164.69ZM169.263 7.7082V14.454H168.12V7.70264L169.263 7.7082Z" fill="#E6360C"/>
<path d="M176.405 13.4188V14.454H171.434V7.70264H176.283V8.73335H172.567V10.4712H175.505V11.4819H172.567V13.4188H176.405Z" fill="#E6360C"/>
<path d="M184.201 7.70264C185.712 7.70264 186.563 8.48651 186.563 9.78186C186.563 11.1039 185.712 11.8878 184.201 11.8878H182.367V14.4451H181.238V7.70264H184.201ZM184.03 10.8871C185.041 10.8871 185.41 10.4712 185.41 9.79075C185.41 9.11028 185.041 8.70444 184.03 8.70444H182.362V10.8871H184.03Z" fill="#E6360C"/>
<path d="M193.303 13.4188V14.454H188.332V7.70264H193.18V8.73335H189.467V10.4712H192.406V11.4819H189.467V13.4188H193.303Z" fill="#E6360C"/>
<path d="M198.546 7.70264H199.651V13.4188H202.042V7.70264H203.154V14.454H195.055V7.70264H196.16V13.4188H198.552L198.546 7.70264Z" fill="#E6360C"/>
<path d="M210.294 13.4188V14.454H205.324V7.70264H210.172V8.73335H206.458V10.4712H209.397V11.4819H206.458V13.4188H210.294Z" fill="#E6360C"/>
<path d="M217.687 7.70264V14.454H216.553V11.5019H213.18V14.454H212.047V7.70264H213.18V10.4434H216.553V7.70264H217.687Z" fill="#E6360C"/>
<path d="M220.928 7.70264V12.9563H221.151L223.939 7.70264H225.545V14.454H224.468V9.1959H224.245L221.454 14.454H219.848V7.70264H220.928Z" fill="#E6360C"/>
<path d="M232.847 7.70264V14.454H231.719V11.7655H230.15C229.951 11.7736 229.753 11.7673 229.555 11.7466L228.594 14.454H227.441L228.482 11.5064C228.159 11.3433 227.891 11.0887 227.711 10.7744C227.531 10.4601 227.447 10.0999 227.47 9.73849C227.47 8.46205 228.302 7.70708 229.766 7.70708L232.847 7.70264ZM231.713 8.70333H229.928C228.972 8.70333 228.623 9.07137 228.623 9.74294C228.623 10.3856 228.972 10.7814 229.928 10.7814H231.719L231.713 8.70333Z" fill="#E6360C"/>
<path d="M100.514 24.5375V27.2216H99.4026V25.5726H94.6404V27.226H93.5352V24.5375H94.2334C94.8245 23.2404 95.1062 21.8236 95.0562 20.3991V18.8213H99.5449V24.5375H100.514ZM98.4352 19.852H96.1147V20.5025C96.1706 21.8837 95.9251 23.2606 95.3953 24.5375H98.4297L98.4352 19.852Z" fill="#E6360C"/>
<path d="M102.021 24.453C102.844 24.453 103.184 24.066 103.184 21.4576V18.8213H107.862V25.5726H106.728V19.852H104.241V21.5899C104.241 24.8688 103.562 25.5682 102.031 25.5682H101.809V24.4563L102.021 24.453Z" fill="#E6360C"/>
<path d="M115.159 18.8213V25.5726H114.025V22.8841H112.456C112.257 22.8923 112.058 22.886 111.861 22.8652L110.906 25.5726H109.754L110.792 22.625C110.469 22.4618 110.201 22.2072 110.022 21.8929C109.842 21.5786 109.758 21.2184 109.782 20.8571C109.782 19.5807 110.613 18.8257 112.078 18.8257L115.159 18.8213ZM114.025 19.822H112.239C111.284 19.822 110.935 20.19 110.935 20.8616C110.935 21.5043 111.284 21.9001 112.239 21.9001H114.025V19.822Z" fill="#E6360C"/>
<path d="M124.901 22.1469C125.179 22.2831 125.412 22.4963 125.573 22.7612C125.734 23.0261 125.815 23.3316 125.807 23.6413C125.807 24.7365 125.061 25.5682 123.501 25.5682H120.363V18.8213H123.418C124.882 18.8213 125.61 19.6241 125.61 20.5692C125.626 20.8376 125.568 21.1052 125.444 21.3434C125.319 21.5815 125.132 21.7813 124.902 21.9212L124.901 22.1469ZM123.312 21.591C124.144 21.591 124.446 21.2574 124.446 20.6926C124.446 20.1278 124.144 19.8031 123.312 19.8031H121.497V21.5888L123.312 21.591ZM123.35 24.5864C124.296 24.5864 124.645 24.1995 124.645 23.5657C124.645 22.9319 124.296 22.555 123.35 22.555H121.497V24.5864H123.35Z" fill="#E6360C"/>
<path d="M133.782 22.195C133.81 22.635 133.748 23.0761 133.599 23.4911C133.45 23.9061 133.218 24.2862 132.917 24.6078C132.615 24.9294 132.251 25.1858 131.846 25.3611C131.441 25.5363 131.005 25.6267 130.564 25.6267C130.123 25.6267 129.687 25.5363 129.283 25.3611C128.878 25.1858 128.514 24.9294 128.212 24.6078C127.911 24.2862 127.678 23.9061 127.529 23.4911C127.38 23.0761 127.318 22.635 127.347 22.195C127.318 21.755 127.38 21.3138 127.529 20.8988C127.678 20.4838 127.911 20.1038 128.212 19.7821C128.514 19.4605 128.878 19.2041 129.283 19.0289C129.687 18.8536 130.123 18.7632 130.564 18.7632C131.005 18.7632 131.441 18.8536 131.846 19.0289C132.251 19.2041 132.615 19.4605 132.917 19.7821C133.218 20.1038 133.45 20.4838 133.599 20.8988C133.748 21.3138 133.81 21.755 133.782 22.195ZM132.629 22.195C132.629 20.8607 131.995 19.7277 130.569 19.7277C129.142 19.7277 128.5 20.8629 128.5 22.195C128.5 23.527 129.132 24.6622 130.569 24.6622C132.005 24.6622 132.629 23.527 132.629 22.195Z" fill="#E6360C"/>
<path d="M135.144 24.453C135.967 24.453 136.307 24.066 136.307 21.4576V18.8213H140.985V25.5726H139.851V19.852H137.366V21.5899C137.366 24.8688 136.685 25.5682 135.154 25.5682H134.938V24.4563L135.144 24.453Z" fill="#E6360C"/>
<path d="M148.742 23.5268C148.637 24.166 148.296 24.7428 147.787 25.1433C147.278 25.5439 146.638 25.7391 145.992 25.6906C143.961 25.6906 142.816 24.2262 142.816 22.1948C142.816 20.1634 143.969 18.6979 146.001 18.6979C146.612 18.6476 147.221 18.8225 147.712 19.1897C148.204 19.5568 148.544 20.091 148.669 20.6915H147.479C147.386 20.383 147.187 20.1172 146.917 19.9408C146.647 19.7645 146.324 19.689 146.004 19.7275C144.615 19.7275 143.973 20.8628 143.973 22.1948C143.973 23.5268 144.605 24.6621 145.995 24.6621C146.348 24.6934 146.701 24.5956 146.987 24.3868C147.273 24.178 147.474 23.8725 147.552 23.5268H148.742Z" fill="#E6360C"/>
<path d="M154.675 18.8213V24.0749H154.897L157.685 18.8213H159.292V25.5726H158.219V20.3145H157.996L155.203 25.5726H153.598V18.8213H154.675Z" fill="#E6360C"/>
<path d="M170.101 23.5268C169.996 24.166 169.656 24.7428 169.147 25.1433C168.638 25.5439 167.997 25.7391 167.351 25.6906C165.32 25.6906 164.176 24.2262 164.176 22.1948C164.176 20.1634 165.329 18.6979 167.36 18.6979C167.972 18.6476 168.58 18.8225 169.072 19.1897C169.563 19.5568 169.904 20.091 170.029 20.6915H168.838C168.745 20.383 168.546 20.1172 168.276 19.9408C168.007 19.7645 167.683 19.689 167.364 19.7275C165.975 19.7275 165.332 20.8628 165.332 22.1948C165.332 23.5268 165.965 24.6621 167.355 24.6621C167.708 24.6932 168.06 24.5952 168.346 24.3865C168.632 24.1778 168.833 23.8723 168.911 23.5268H170.101Z" fill="#E6360C"/>
<path d="M172.941 18.8213V24.0749H173.163L175.949 18.8213H177.566V25.5726H176.489V20.3145H176.266L173.469 25.5726H171.863V18.8213H172.941Z" fill="#E6360C"/>
<path d="M185.295 18.8213V25.5726H184.161V19.852H180.865V25.5726H179.73V18.8213H185.295Z" fill="#E6360C"/>
<path fill-rule="evenodd" clip-rule="evenodd" d="M2.69965 0.333008H29.2692C30.7602 0.333008 31.9689 1.54168 31.9689 3.03266V29.6022C31.9689 31.0932 30.7602 32.3019 29.2692 32.3019H2.69965C1.20868 32.3019 0 31.0932 0 29.6022V3.03266C0 1.54168 1.20868 0.333008 2.69965 0.333008ZM20.8524 21.1941L8.08025 25.8818C8.02689 25.9016 7.96956 25.9081 7.91313 25.9009C7.85671 25.8936 7.80287 25.8729 7.75622 25.8403C7.70957 25.8078 7.67149 25.7644 7.64524 25.7139C7.61899 25.6635 7.60535 25.6074 7.60547 25.5505V20.9162C7.60514 20.7699 7.65157 20.6274 7.73798 20.5093C7.8244 20.3913 7.94627 20.304 8.0858 20.2602L18.0394 17.1124C18.1037 17.0927 18.1599 17.0529 18.1999 16.9989C18.24 16.9449 18.2616 16.8794 18.2618 16.8122V15.8404C18.2618 15.7731 18.2402 15.7076 18.2002 15.6536C18.1601 15.5995 18.1038 15.5598 18.0394 15.5402L8.0858 12.3747C7.94636 12.3307 7.82459 12.2433 7.7382 12.1253C7.65181 12.0074 7.60532 11.8649 7.60547 11.7187V7.08545C7.60524 7.02847 7.61879 6.97228 7.64497 6.92166C7.67114 6.87104 7.70916 6.82749 7.75578 6.79474C7.80241 6.76198 7.85626 6.74097 7.91276 6.73351C7.96925 6.72605 8.02671 6.73236 8.08025 6.75189L20.9925 11.4941C22.1808 11.9296 23.1667 12.788 23.7616 13.905C24.3566 15.022 24.5187 16.3192 24.217 17.5483C23.9983 18.3853 23.577 19.1557 22.9902 19.7916C22.4035 20.4274 21.6693 20.909 20.8524 21.1941Z" fill="#E6360C"/>
<path d="M44.8737 7.64352C44.8837 7.32775 44.7837 7.22879 44.4646 7.23102C42.6937 7.24288 40.9232 7.24288 39.1531 7.23102C38.8518 7.23102 38.7617 7.32441 38.7617 7.6224C38.7684 14.6528 38.7695 24.9011 38.7617 31.9315C38.7617 32.2562 38.8729 32.334 39.1776 32.3318C40.9358 32.3184 42.6941 32.3184 44.4523 32.3318C44.7859 32.3318 44.8782 32.2206 44.876 31.9004C44.8615 30.0735 44.866 25.0289 44.876 23.2021C44.876 23.0909 44.9716 22.8852 45.0027 22.8886C45.1684 22.9091 45.3288 22.9608 45.4753 23.0409C45.5464 23.0809 45.5742 23.201 45.622 23.2833C46.2166 24.3175 47.1808 25.0882 48.3206 25.4403C49.4401 25.7872 50.6223 25.8829 51.783 25.7205C52.9173 25.631 54.0083 25.246 54.9476 24.6038C55.8869 23.9616 56.6416 23.0847 57.1367 22.0602C57.7826 20.74 58.1548 19.3028 58.2308 17.835C58.4368 15.8327 58.246 13.8094 57.6693 11.8809C57.4186 10.9614 56.9781 10.1046 56.3762 9.36557C55.7743 8.62658 55.0244 8.0218 54.1746 7.59015C52.6822 6.88558 51.0094 6.6562 49.3824 6.93303C48.5875 7.01422 47.8244 7.28791 47.1591 7.73041C46.4938 8.17291 45.9464 8.77089 45.5642 9.47257C45.5399 9.53843 45.5017 9.59834 45.4524 9.64829C45.403 9.69824 45.3436 9.73709 45.278 9.76224C45.2125 9.78739 45.1423 9.79827 45.0722 9.79414C45.0021 9.79002 44.9337 9.77098 44.8715 9.73831C44.8682 9.03338 44.8537 8.33845 44.8737 7.64352ZM44.8671 13.7166C44.8408 13.5054 44.8631 13.291 44.9324 13.0898C45.0017 12.8886 45.1161 12.7058 45.2668 12.5556C45.4176 12.4054 45.6007 12.2916 45.8022 12.2231C46.0037 12.1545 46.2182 12.1329 46.4293 12.16C47.7531 12.16 49.0774 12.16 50.402 12.16C50.6046 12.1423 50.8086 12.1684 51.0003 12.2364C51.1919 12.3045 51.3666 12.413 51.5127 12.5545C51.6587 12.696 51.7726 12.8672 51.8467 13.0566C51.9208 13.246 51.9533 13.4491 51.942 13.6521C51.9605 15.4193 51.9605 17.1857 51.942 18.9514C51.9574 19.1605 51.9265 19.3704 51.8515 19.5662C51.7764 19.762 51.6591 19.9389 51.5079 20.0841C51.3567 20.2294 51.1753 20.3395 50.9767 20.4066C50.778 20.4738 50.567 20.4962 50.3587 20.4724C49.034 20.4724 47.7094 20.4724 46.3848 20.4724C46.1825 20.493 45.9782 20.4687 45.7864 20.4012C45.5947 20.3337 45.4201 20.2246 45.2754 20.0819C45.1306 19.9391 45.0191 19.7662 44.9489 19.5754C44.8788 19.3846 44.8516 19.1806 44.8693 18.9781C44.8615 18.0886 44.8693 17.199 44.8693 16.3095C44.866 15.4467 44.8637 14.5817 44.8671 13.7166Z" fill="#E6360C"/>
<path d="M61.6087 1.05225H67.0859C67.1687 1.05225 67.2482 1.08517 67.3068 1.14376C67.3654 1.20235 67.3983 1.28182 67.3983 1.36469V25.5582C67.3983 25.6416 67.3652 25.7216 67.3062 25.7807C67.2471 25.8397 67.1671 25.8728 67.0837 25.8728H61.6054C61.5225 25.8728 61.4431 25.8399 61.3845 25.7813C61.3259 25.7227 61.293 25.6432 61.293 25.5604V1.36802C61.2928 1.32651 61.3009 1.28539 61.3167 1.24701C61.3325 1.20863 61.3558 1.17376 61.3851 1.14441C61.4145 1.11506 61.4494 1.0918 61.4877 1.07599C61.5261 1.06017 61.5672 1.0521 61.6087 1.05225Z" fill="#E6360C"/>
<path d="M81.8786 7.00453L69.1075 11.6978C68.2905 11.9827 67.5561 12.4643 66.9691 13.1002C66.3822 13.736 65.9607 14.5065 65.7418 15.3437C65.4404 16.5729 65.6026 17.8701 66.1974 18.9872C66.7923 20.1043 67.7781 20.963 68.9663 21.399L81.8831 26.14C81.9366 26.1598 81.9941 26.1664 82.0507 26.159C82.1073 26.1517 82.1613 26.1307 82.208 26.0979C82.2547 26.0651 82.2927 26.0214 82.3188 25.9706C82.3449 25.9199 82.3583 25.8635 82.3578 25.8065V21.1733C82.3581 21.0272 82.3117 20.8848 82.2255 20.7668C82.1394 20.6489 82.0178 20.5614 81.8786 20.5172L71.9239 17.3517C71.8596 17.332 71.8034 17.2922 71.7634 17.2382C71.7233 17.1842 71.7017 17.1187 71.7015 17.0515V16.0797C71.7017 16.0125 71.7233 15.9471 71.7634 15.893C71.8034 15.839 71.8596 15.7992 71.9239 15.7795L81.8786 12.6318C82.0178 12.5876 82.1394 12.5001 82.2255 12.3822C82.3117 12.2642 82.3581 12.1218 82.3578 11.9758V7.33809C82.3583 7.28057 82.3448 7.22379 82.3184 7.17268C82.292 7.12158 82.2535 7.07769 82.2063 7.04482C82.159 7.01196 82.1045 6.99111 82.0474 6.98409C81.9903 6.97707 81.9324 6.98408 81.8786 7.00453Z" fill="#E6360C"/>
</g>
<defs>
<clipPath id="clip0_801_11310">
<rect width="232.845" height="32" fill="white" transform="translate(0 0.333008)"/>
</clipPath>
</defs>
</svg>
