<svg width="83" height="32" viewBox="0 0 83 32" fill="none" xmlns="http://www.w3.org/2000/svg">
<g clip-path="url(#clip0_800_3218)">
<path d="M29.2692 0H2.69965C1.20868 0 0 1.20868 0 2.69965V29.2692C0 30.7602 1.20868 31.9689 2.69965 31.9689H29.2692C30.7602 31.9689 31.9689 30.7602 31.9689 29.2692V2.69965C31.9689 1.20868 30.7602 0 29.2692 0Z" fill="#E6360C"/>
<path d="M8.08025 25.5488L20.8524 20.8611C21.6693 20.576 22.4035 20.0944 22.9902 19.4585C23.577 18.8227 23.9983 18.0523 24.217 17.2153C24.5187 15.9862 24.3566 14.689 23.7616 13.572C23.1667 12.455 22.1808 11.5966 20.9925 11.1611L8.08025 6.41888C8.02671 6.39935 7.96925 6.39304 7.91276 6.4005C7.85626 6.40796 7.80241 6.42897 7.75578 6.46173C7.70916 6.49449 7.67114 6.53803 7.64497 6.58865C7.61879 6.63927 7.60524 6.69546 7.60547 6.75245V11.3857C7.60532 11.5319 7.65181 11.6744 7.7382 11.7923C7.82459 11.9103 7.94636 11.9977 8.0858 12.0417L18.0394 15.2072C18.1038 15.2268 18.1601 15.2665 18.2002 15.3206C18.2402 15.3746 18.2618 15.4401 18.2618 15.5074V16.4792C18.2616 16.5464 18.24 16.6119 18.1999 16.6659C18.1599 16.7199 18.1037 16.7597 18.0394 16.7794L8.0858 19.9272C7.94627 19.971 7.8244 20.0583 7.73798 20.1763C7.65157 20.2943 7.60514 20.4369 7.60547 20.5832V25.2175C7.60535 25.2744 7.61899 25.3304 7.64524 25.3809C7.67149 25.4314 7.70957 25.4747 7.75622 25.5073C7.80287 25.5399 7.85671 25.5606 7.91313 25.5679C7.96956 25.5751 8.02689 25.5686 8.08025 25.5488Z" fill="white"/>
<path d="M44.8737 7.31052C44.8837 6.99474 44.7837 6.89578 44.4646 6.89801C42.6937 6.90987 40.9232 6.90987 39.1531 6.89801C38.8518 6.89801 38.7617 6.99141 38.7617 7.28939C38.7684 14.3198 38.7695 24.5681 38.7617 31.5985C38.7617 31.9232 38.8729 32.001 39.1776 31.9988C40.9358 31.9854 42.6941 31.9854 44.4523 31.9988C44.7859 31.9988 44.8782 31.8876 44.876 31.5674C44.8615 29.7405 44.866 24.6959 44.876 22.8691C44.876 22.7579 44.9716 22.5522 45.0027 22.5555C45.1684 22.5761 45.3288 22.6278 45.4753 22.7079C45.5464 22.7479 45.5742 22.868 45.622 22.9503C46.2166 23.9845 47.1808 24.7552 48.3206 25.1073C49.4401 25.4542 50.6223 25.5499 51.783 25.3875C52.9173 25.298 54.0083 24.913 54.9476 24.2708C55.8869 23.6286 56.6416 22.7516 57.1367 21.7272C57.7826 20.407 58.1548 18.9698 58.2308 17.502C58.4368 15.4997 58.246 13.4764 57.6693 11.5479C57.4186 10.6284 56.9781 9.77156 56.3762 9.03256C55.7743 8.29357 55.0244 7.68879 54.1746 7.25715C52.6822 6.55257 51.0094 6.3232 49.3824 6.60002C48.5875 6.68122 47.8244 6.95491 47.1591 7.39741C46.4938 7.8399 45.9464 8.43788 45.5642 9.13956C45.5399 9.20542 45.5017 9.26533 45.4524 9.31528C45.403 9.36523 45.3436 9.40408 45.278 9.42923C45.2125 9.45439 45.1423 9.46526 45.0722 9.46113C45.0021 9.45701 44.9337 9.43797 44.8715 9.4053C44.8682 8.70037 44.8537 8.00544 44.8737 7.31052ZM44.8671 13.3836C44.8408 13.1724 44.8631 12.958 44.9324 12.7568C45.0017 12.5555 45.1161 12.3728 45.2668 12.2226C45.4176 12.0724 45.6007 11.9586 45.8022 11.8901C46.0037 11.8215 46.2182 11.7999 46.4293 11.827C47.7531 11.827 49.0774 11.827 50.402 11.827C50.6046 11.8093 50.8086 11.8354 51.0003 11.9034C51.1919 11.9715 51.3666 12.08 51.5127 12.2215C51.6587 12.363 51.7726 12.5342 51.8467 12.7236C51.9208 12.913 51.9533 13.1161 51.942 13.3191C51.9605 15.0863 51.9605 16.8527 51.942 18.6184C51.9574 18.8275 51.9265 19.0374 51.8515 19.2332C51.7764 19.429 51.6591 19.6059 51.5079 19.7511C51.3567 19.8964 51.1753 20.0065 50.9767 20.0736C50.778 20.1408 50.567 20.1632 50.3587 20.1394C49.034 20.1394 47.7094 20.1394 46.3848 20.1394C46.1825 20.16 45.9782 20.1357 45.7864 20.0682C45.5947 20.0007 45.4201 19.8916 45.2754 19.7489C45.1306 19.6061 45.0191 19.4332 44.9489 19.2424C44.8788 19.0515 44.8516 18.8476 44.8693 18.6451C44.8615 17.7555 44.8693 16.866 44.8693 15.9765C44.866 15.1137 44.8637 14.2487 44.8671 13.3836Z" fill="#2F2F2F"/>
<path d="M61.6087 0.71924H67.0859C67.1687 0.71924 67.2482 0.752158 67.3068 0.810752C67.3654 0.869345 67.3983 0.948815 67.3983 1.03168V25.2251C67.3983 25.3086 67.3652 25.3886 67.3062 25.4476C67.2471 25.5067 67.1671 25.5398 67.0837 25.5398H61.6054C61.5225 25.5398 61.4431 25.5069 61.3845 25.4483C61.3259 25.3897 61.293 25.3102 61.293 25.2274V1.03502C61.2928 0.993506 61.3009 0.952378 61.3167 0.914C61.3325 0.875622 61.3558 0.840753 61.3851 0.811401C61.4145 0.782049 61.4494 0.758795 61.4877 0.742978C61.5261 0.727161 61.5672 0.719093 61.6087 0.71924Z" fill="#2F2F2F"/>
<path d="M81.8786 6.67152L69.1075 11.3648C68.2905 11.6497 67.5561 12.1313 66.9691 12.7672C66.3822 13.403 65.9607 14.1735 65.7418 15.0106C65.4404 16.2399 65.6026 17.5371 66.1974 18.6542C66.7923 19.7713 67.7781 20.63 68.9663 21.066L81.8831 25.807C81.9366 25.8268 81.9941 25.8333 82.0507 25.826C82.1073 25.8187 82.1613 25.7977 82.208 25.7649C82.2547 25.7321 82.2927 25.6884 82.3188 25.6376C82.3449 25.5869 82.3583 25.5305 82.3578 25.4735V20.8402C82.3581 20.6942 82.3117 20.5518 82.2255 20.4338C82.1394 20.3159 82.0178 20.2284 81.8786 20.1842L71.9239 17.0187C71.8596 16.999 71.8034 16.9592 71.7634 16.9052C71.7233 16.8511 71.7017 16.7857 71.7015 16.7185V15.7467C71.7017 15.6795 71.7233 15.6141 71.7634 15.56C71.8034 15.506 71.8596 15.4662 71.9239 15.4465L81.8786 12.2988C82.0178 12.2546 82.1394 12.1671 82.2255 12.0492C82.3117 11.9312 82.3581 11.7888 82.3578 11.6427V7.00508C82.3583 6.94756 82.3448 6.89078 82.3184 6.83968C82.292 6.78857 82.2535 6.74468 82.2063 6.71182C82.159 6.67895 82.1045 6.6581 82.0474 6.65108C81.9903 6.64406 81.9324 6.65107 81.8786 6.67152Z" fill="#2F2F2F"/>
</g>
<defs>
<clipPath id="clip0_800_3218">
<rect width="82.3527" height="32" fill="white"/>
</clipPath>
</defs>
</svg>
