<svg width="30" height="31" viewBox="0 0 30 31" fill="none" xmlns="http://www.w3.org/2000/svg">
<path d="M0.272387 20.8439L7.6 18.1545C8.06864 17.9909 8.48984 17.7146 8.82647 17.3498C9.16309 16.985 9.40481 16.543 9.53029 16.0628C9.70338 15.3576 9.61036 14.6134 9.26904 13.9726C8.92773 13.3318 8.36209 12.8393 7.68037 12.5894L0.272387 9.86873C0.241675 9.85753 0.208708 9.85391 0.176297 9.85819C0.143885 9.86247 0.112988 9.87452 0.0862378 9.89332C0.0594871 9.91211 0.0376752 9.93709 0.02266 9.96613C0.00764487 9.99517 -0.000128472 10.0274 1.60602e-06 10.0601V12.7183C-8.72402e-05 12.8021 0.0265888 12.8839 0.0761501 12.9516C0.125711 13.0193 0.195573 13.0694 0.275576 13.0946L5.9861 14.9107C6.02303 14.922 6.05537 14.9448 6.07834 14.9758C6.10131 15.0068 6.1137 15.0444 6.11368 15.083V15.6405C6.1136 15.6791 6.10117 15.7166 6.07821 15.7476C6.05526 15.7786 6.02297 15.8014 5.9861 15.8127L0.275576 17.6186C0.19552 17.6438 0.125602 17.6939 0.076026 17.7616C0.0264503 17.8293 -0.000187117 17.9111 1.60602e-06 17.995V20.6538C-7.01957e-05 20.6864 0.00775846 20.7186 0.0228191 20.7475C0.0378798 20.7765 0.0597249 20.8014 0.0864884 20.8201C0.113252 20.8387 0.144139 20.8507 0.176511 20.8548C0.208883 20.859 0.241778 20.8552 0.272387 20.8439Z" fill="#E6360C"/>
<path d="M10.2724 20.8439L17.6 18.1545C18.0686 17.9909 18.4898 17.7146 18.8265 17.3498C19.1631 16.985 19.4048 16.543 19.5303 16.0628C19.7034 15.3576 19.6104 14.6134 19.269 13.9726C18.9277 13.3318 18.3621 12.8393 17.6804 12.5894L10.2724 9.86873C10.2417 9.85753 10.2087 9.85391 10.1763 9.85819C10.1439 9.86247 10.113 9.87452 10.0862 9.89332C10.0595 9.91211 10.0377 9.93709 10.0227 9.96613C10.0076 9.99517 9.99987 10.0274 10 10.0601V12.7183C9.99991 12.8021 10.0266 12.8839 10.0762 12.9516C10.1257 13.0193 10.1956 13.0694 10.2756 13.0946L15.9861 14.9107C16.023 14.922 16.0554 14.9448 16.0783 14.9758C16.1013 15.0068 16.1137 15.0444 16.1137 15.083V15.6405C16.1136 15.6791 16.1012 15.7166 16.0782 15.7476C16.0553 15.7786 16.023 15.8014 15.9861 15.8127L10.2756 17.6186C10.1955 17.6438 10.1256 17.6939 10.076 17.7616C10.0265 17.8293 9.99981 17.9111 10 17.995V20.6538C9.99993 20.6864 10.0078 20.7186 10.0228 20.7475C10.0379 20.7765 10.0597 20.8014 10.0865 20.8201C10.1133 20.8387 10.1441 20.8507 10.1765 20.8548C10.2089 20.859 10.2418 20.8552 10.2724 20.8439Z" fill="#E6360C"/>
<path d="M20.2724 20.8439L27.6 18.1545C28.0686 17.9909 28.4898 17.7146 28.8265 17.3498C29.1631 16.985 29.4048 16.543 29.5303 16.0628C29.7034 15.3576 29.6104 14.6134 29.269 13.9726C28.9277 13.3318 28.3621 12.8393 27.6804 12.5894L20.2724 9.86873C20.2417 9.85753 20.2087 9.85391 20.1763 9.85819C20.1439 9.86247 20.113 9.87452 20.0862 9.89332C20.0595 9.91211 20.0377 9.93709 20.0227 9.96613C20.0076 9.99517 19.9999 10.0274 20 10.0601V12.7183C19.9999 12.8021 20.0266 12.8839 20.0762 12.9516C20.1257 13.0193 20.1956 13.0694 20.2756 13.0946L25.9861 14.9107C26.023 14.922 26.0554 14.9448 26.0783 14.9758C26.1013 15.0068 26.1137 15.0444 26.1137 15.083V15.6405C26.1136 15.6791 26.1012 15.7166 26.0782 15.7476C26.0553 15.7786 26.023 15.8014 25.9861 15.8127L20.2756 17.6186C20.1955 17.6438 20.1256 17.6939 20.076 17.7616C20.0265 17.8293 19.9998 17.9111 20 17.995V20.6538C19.9999 20.6864 20.0078 20.7186 20.0228 20.7475C20.0379 20.7765 20.0597 20.8014 20.0865 20.8201C20.1133 20.8387 20.1441 20.8507 20.1765 20.8548C20.2089 20.859 20.2418 20.8552 20.2724 20.8439Z" fill="#E6360C"/>
</svg>
