<svg width="127" height="97" viewBox="0 0 127 97" fill="none" xmlns="http://www.w3.org/2000/svg">
<path d="M48.1817 48.1939H2V32.8462H48.1817V48.1939Z" stroke="#E43D2E" stroke-width="4" stroke-linejoin="round"/>
<path d="M48.1817 63.5411H2V48.1934H48.1817V63.5411Z" stroke="#E43D2E" stroke-width="4" stroke-linejoin="round"/>
<path d="M48.1817 78.8893H2V63.541H48.1817V78.8893Z" stroke="#E43D2E" stroke-width="4" stroke-linejoin="round"/>
<path d="M48.1817 94.2374H2V78.8896H48.1817V94.2374Z" stroke="#E43D2E" stroke-width="4" stroke-linejoin="round"/>
<path d="M65.1788 63.5429H48.1816V48.1963H66.1339" stroke="#E43D2E" stroke-width="4" stroke-linecap="round" stroke-linejoin="round"/>
<path d="M65.1788 63.543H48.1816V78.8896H73.487" stroke="#E43D2E" stroke-width="4" stroke-linecap="round" stroke-linejoin="round"/>
<path d="M73.487 78.8896H48.1816V94.2363H94.365V87.4407" stroke="#E43D2E" stroke-width="4" stroke-linecap="round" stroke-linejoin="round"/>
<path d="M77.9253 32.8442H48.1816V48.1964H66.1339" stroke="#E43D2E" stroke-width="4" stroke-linecap="round" stroke-linejoin="round"/>
<path d="M77.9253 32.8442H48.1816V17.4976H94.365V27.8979" stroke="#E43D2E" stroke-width="4" stroke-linecap="round" stroke-linejoin="round"/>
<path d="M94.3633 17.4971H48.1816V2.14941H94.3633V17.4971Z" stroke="#E43D2E" stroke-width="4" stroke-linejoin="round"/>
<path d="M124.133 57.6663C124.133 49.7705 120.997 42.198 115.414 36.6148C109.83 31.0316 102.258 27.895 94.3621 27.895C54.871 29.4632 54.8823 85.8754 94.3623 87.4376C102.258 87.4375 109.83 84.3009 115.414 78.7177C120.997 73.1345 124.133 65.5621 124.133 57.6663Z" stroke="#E43D2E" stroke-width="4" stroke-linejoin="round"/>
<path d="M77.9258 32.8437C82.7976 29.6092 88.5176 27.8882 94.3654 27.8975" stroke="#E43D2E" stroke-width="4" stroke-linecap="round" stroke-linejoin="round"/>
<path d="M109.333 52.8437L94.3633 61.3285V40.9932" stroke="#E43D2E" stroke-width="4" stroke-linecap="round" stroke-linejoin="round"/>
</svg>
