<svg width="40" height="41" viewBox="0 0 40 41" fill="none" xmlns="http://www.w3.org/2000/svg">
<rect y="0.476562" width="40" height="40" rx="20" fill="white"/>
<path d="M20.9825 27.4766C13.466 27.4766 9.17864 22.2213 9 13.4766H12.7651C12.8888 19.895 15.6646 22.6137 17.8632 23.1743V13.4766H21.4085V19.0121C23.5796 18.7739 25.8607 16.2513 26.6302 13.4766H30.1755C29.8855 14.9156 29.3075 16.2782 28.4776 17.4791C27.6477 18.6799 26.5837 19.6932 25.3523 20.4555C26.7269 21.1521 27.941 22.1381 28.9145 23.3483C29.888 24.5586 30.5988 25.9656 31 27.4766H27.0974C26.7373 26.1642 26.0054 24.9894 24.9934 24.0994C23.9814 23.2094 22.7343 22.6438 21.4085 22.4736V27.4766H20.9825Z" fill="#E6360C"/>
</svg>
