<svg width="229" height="229" viewBox="0 0 229 229" fill="none" xmlns="http://www.w3.org/2000/svg">
<path d="M57.2348 87.099H66.6326C71.3603 87.099 74.0701 89.5205 74.0701 93.6429C74.0701 97.8229 71.3603 100.302 66.6326 100.302H61.5301V107.682H57.2348V87.099ZM61.5301 96.5256H66.0272C68.6794 96.5256 69.6595 95.5167 69.6595 93.7005C69.6595 91.8555 68.6794 90.8754 66.0272 90.8754H61.5301V96.5256Z" fill="#5576B6"/>
<path d="M89.6738 107.682L88.0018 102.118H80.1606L78.4886 107.682H74.251L80.7948 87.099H87.454L94.0267 107.682H89.6738ZM83.4182 91.2213L81.2561 98.3706H86.8486L84.6866 91.2213H83.4182Z" fill="#5576B6"/>
<path d="M109.564 101.109H114.033C113.427 105.203 110.256 108.057 105.442 108.057C99.1576 108.057 95.583 103.704 95.583 97.3904C95.583 91.0772 99.1864 86.7242 105.442 86.7242C109.997 86.7242 113.139 89.3187 113.831 93.0951H109.334C108.844 91.3943 107.546 90.5583 105.442 90.5583C101.752 90.5583 99.9936 93.5852 99.9936 97.3904C99.9936 101.196 101.752 104.223 105.442 104.223C107.662 104.223 109.132 103.069 109.564 101.109Z" fill="#5576B6"/>
<path d="M132.981 87.099V90.8754H126.581V107.682H122.286V90.8754H115.886V87.099H132.981Z" fill="#5576B6"/>
<path d="M140.13 103.848H151.373V107.682H135.835V87.099H151.056V90.9331H140.13V95.2572H148.635V99.0048H140.13V103.848Z" fill="#5576B6"/>
<path d="M167.373 107.682L163.078 99.2066H162.184L157.802 107.682H153.19L158.869 96.8716L153.968 87.099H158.379L162.213 94.6518H163.107L167.056 87.099H171.409L166.422 96.7562L172.101 107.682H167.373Z" fill="#5576B6"/>
<path d="M53.8847 121.265H57.8917V135.621H58.6413L66.05 121.265H71.8443V141.848H67.8084V127.175H67.0589L59.4773 141.848H53.8847V121.265Z" fill="#5576B6"/>
<path d="M90.0082 121.265H94.3035V141.848H90.0082V133.229H80.8987V141.848H76.6034V121.265H80.8987V129.279H90.0082V121.265Z" fill="#5576B6"/>
<path d="M113.396 130.778V131.528C114.866 132.191 116.077 133.834 116.077 135.881C116.077 139.311 113.857 141.848 108.985 141.848H99.0686V121.265H108.726C113.252 121.265 115.5 123.773 115.5 126.713C115.5 128.558 114.693 130.086 113.396 130.778ZM103.364 129.423H108.207C110.138 129.423 111.09 128.645 111.09 127.117C111.09 125.589 110.11 124.84 108.178 124.84H103.364V129.423ZM103.364 138.187H108.351C110.513 138.187 111.666 137.38 111.666 135.65C111.666 133.892 110.571 133.027 108.409 133.027H103.364V138.187Z" fill="#5576B6"/>
<path d="M124.225 138.014H135.467V141.848H119.929V121.265H135.15V125.099H124.225V129.423H132.729V133.171H124.225V138.014Z" fill="#5576B6"/>
<path d="M152.13 135.275H156.598C155.993 139.369 152.822 142.223 148.008 142.223C141.723 142.223 138.149 137.87 138.149 131.557C138.149 125.243 141.752 120.89 148.008 120.89C152.563 120.89 155.705 123.485 156.397 127.261H151.9C151.409 125.56 150.112 124.724 148.008 124.724C144.318 124.724 142.559 127.751 142.559 131.557C142.559 135.362 144.318 138.389 148.008 138.389C150.228 138.389 151.698 137.236 152.13 135.275Z" fill="#5576B6"/>
<path d="M175.547 121.265V125.041H169.147V141.848H164.852V125.041H158.452V121.265H175.547Z" fill="#5576B6"/>
</svg>
