<svg width="229" height="229" viewBox="0 0 229 229" fill="none" xmlns="http://www.w3.org/2000/svg">
<path d="M64.8423 88.7591H65.1306C70.6655 88.7591 74.4996 91.5554 74.4996 97.0038C74.4996 102.568 70.6655 105.248 65.1306 105.248H64.8423V107.958H60.7488V105.248H60.4894C54.868 105.248 51.0916 102.568 51.0916 97.0038C51.0916 91.5554 54.9545 88.7591 60.4894 88.7591H60.7488V86.3376H64.8423V88.7591ZM60.4894 101.587H60.7488V92.4202H60.4894C57.4048 92.4202 55.3869 93.8039 55.3869 97.0038C55.3869 100.146 57.376 101.587 60.4894 101.587ZM64.8423 101.587H65.1306C68.2152 101.587 70.2043 100.146 70.2043 97.0038C70.2043 93.7751 68.2152 92.4202 65.1306 92.4202H64.8423V101.587Z" fill="#2F2F2F"/>
<path d="M91.3563 107.584L89.6843 102.02H81.8432L80.1712 107.584H75.9335L82.4774 87.0006H89.1366L95.7093 107.584H91.3563ZM85.1007 91.1229L82.9387 98.2722H88.5312L86.3691 91.1229H85.1007Z" fill="#2F2F2F"/>
<path d="M98.6116 87.0006H102.619V101.357H103.368L110.777 87.0006H116.571V107.584H112.535V92.9103H111.786L104.204 107.584H98.6116V87.0006ZM109.854 81.5234H113.025C112.795 84.2908 110.835 85.9628 107.577 85.9628C104.32 85.9628 102.359 84.2908 102.129 81.5234H105.3C105.415 82.5323 106.164 83.3107 107.577 83.3107C108.961 83.3107 109.71 82.5323 109.854 81.5234Z" fill="#2F2F2F"/>
<path d="M125.626 94.7552H131.045C135.629 94.7552 138.223 97.1479 138.223 101.155C138.223 105.162 135.629 107.584 131.045 107.584H121.33V87.0006H136.407V90.8347H125.626V94.7552ZM125.626 103.807H130.238C132.89 103.807 133.813 102.913 133.813 101.097C133.813 99.3388 132.89 98.3587 130.238 98.3587H125.626V103.807Z" fill="#2F2F2F"/>
<path d="M146.289 103.749H157.532V107.584H141.994V87.0006H157.215V90.8347H146.289V95.1588H154.793V98.9064H146.289V103.749Z" fill="#2F2F2F"/>
<path d="M161.193 87.0006H170.591C175.319 87.0006 178.029 89.4221 178.029 93.5445C178.029 97.7245 175.319 100.204 170.591 100.204H165.489V107.584H161.193V87.0006ZM165.489 96.4272H169.986C172.638 96.4272 173.618 95.4183 173.618 93.6021C173.618 91.7572 172.638 90.777 169.986 90.777H165.489V96.4272Z" fill="#2F2F2F"/>
<path d="M71.9098 137.541H72.6305C74.9079 137.541 75.8592 136.878 75.8592 130.276V121.167H90.9361V141.75H86.6119V125.001H79.9239V130.564C79.9239 140.106 77.5889 141.75 72.6594 141.75H71.9098V137.541Z" fill="#2F2F2F"/>
<path d="M99.9792 137.916H111.222V141.75H95.6838V121.167H110.905V125.001H99.9792V129.325H108.483V133.072H99.9792V137.916Z" fill="#2F2F2F"/>
<path d="M128.288 121.167H132.584V141.75H128.288V133.13H119.179V141.75H114.883V121.167H119.179V129.181H128.288V121.167Z" fill="#2F2F2F"/>
<path d="M154.357 137.916H157.298V146.794H153.117V141.75H139.597V146.794H135.417V137.916H137.551C138.934 135.465 140.001 131.689 140.001 125.693V121.167H154.357V137.916ZM150.177 137.916V125.001H143.979V126.817C143.979 132.035 143.085 135.696 141.904 137.916H150.177Z" fill="#2F2F2F"/>
</svg>
